<?xml version="1.0" encoding="UTF-8" standalone="no"?>
<!-- Created with Inkscape (http://www.inkscape.org/) -->

<svg
   xmlns:dc="http://purl.org/dc/elements/1.1/"
   xmlns:cc="http://creativecommons.org/ns#"
   xmlns:rdf="http://www.w3.org/1999/02/22-rdf-syntax-ns#"
   xmlns:svg="http://www.w3.org/2000/svg"
   xmlns="http://www.w3.org/2000/svg"
   xmlns:xlink="http://www.w3.org/1999/xlink"
   xmlns:sodipodi="http://sodipodi.sourceforge.net/DTD/sodipodi-0.dtd"
   xmlns:inkscape="http://www.inkscape.org/namespaces/inkscape"
   sodipodi:docname="gnonograms2.svg"
   inkscape:version="0.48.1 r9760"
   version="1.1"
   id="svg2"
   height="256"
   width="256"
   inkscape:export-filename="/media/shared/shared_data/Vala/Gnonograms/icons/gnonograms48.png"
   inkscape:export-xdpi="16.875"
   inkscape:export-ydpi="16.875">
  <sodipodi:namedview
     id="base"
     pagecolor="#ffffff"
     bordercolor="#666666"
     borderopacity="1.0"
     inkscape:pageopacity="0.0"
     inkscape:pageshadow="2"
     inkscape:zoom="0.37476659"
     inkscape:cx="134.47193"
     inkscape:cy="115.81477"
     inkscape:document-units="px"
     inkscape:current-layer="layer1"
     showgrid="false"
     inkscape:window-width="1280"
     inkscape:window-height="776"
     inkscape:window-x="0"
     inkscape:window-y="24"
     inkscape:window-maximized="1" />
  <defs
     id="defs4">
    <linearGradient
       id="linearGradient3977">
      <stop
         style="stop-color:#00026a;stop-opacity:1;"
         offset="0"
         id="stop3979" />
      <stop
         id="stop3987"
         offset="0.13029356"
         style="stop-color:#40a4b4;stop-opacity:1;" />
      <stop
         style="stop-color:#effeff;stop-opacity:1;"
         offset="1"
         id="stop3981" />
    </linearGradient>
    <inkscape:path-effect
       is_visible="true"
       id="path-effect2852"
       effect="spiro" />
    <linearGradient
       id="linearGradient10390">
      <stop
         style="stop-color:#19029e;stop-opacity:1;"
         offset="0"
         id="stop10392" />
      <stop
         style="stop-color:#ffffff;stop-opacity:0.99230766;"
         offset="1"
         id="stop10394" />
    </linearGradient>
    <linearGradient
       id="linearGradient8756">
      <stop
         style="stop-color:#204a87;stop-opacity:1;"
         offset="0"
         id="stop8758" />
      <stop
         style="stop-color:#204a87;stop-opacity:0;"
         offset="1"
         id="stop8760" />
    </linearGradient>
    <inkscape:path-effect
       is_visible="true"
       id="path-effect8000"
       effect="spiro" />
    <inkscape:path-effect
       effect="spiro"
       id="path-effect3663"
       is_visible="true" />
    <linearGradient
       id="linearGradient3621">
      <stop
         style="stop-color:#39229a;stop-opacity:1;"
         offset="0"
         id="stop3623" />
      <stop
         style="stop-color:#f1f6fc;stop-opacity:0;"
         offset="1"
         id="stop3625" />
    </linearGradient>
    <inkscape:path-effect
       is_visible="true"
       id="path-effect2818"
       effect="spiro" />
    <inkscape:perspective
       id="perspective10"
       inkscape:persp3d-origin="372.04724 : 350.78739 : 1"
       inkscape:vp_z="744.09448 : 526.18109 : 1"
       inkscape:vp_y="0 : 1000 : 0"
       inkscape:vp_x="0 : 526.18109 : 1"
       sodipodi:type="inkscape:persp3d" />
    <linearGradient
       spreadMethod="pad"
       gradientUnits="userSpaceOnUse"
       y2="607.01343"
       x2="567.64282"
       y1="607.01343"
       x1="80.928574"
       id="linearGradient3619"
       xlink:href="#linearGradient3621"
       inkscape:collect="always" />
    <linearGradient
       gradientTransform="matrix(0.93543972,0,0,0.92315936,56.650263,50.924039)"
       y2="607.01343"
       x2="567.64282"
       y1="607.01343"
       x1="80.928574"
       spreadMethod="pad"
       gradientUnits="userSpaceOnUse"
       id="linearGradient3661"
       xlink:href="#linearGradient3621"
       inkscape:collect="always" />
    <linearGradient
       y2="607.01343"
       x2="567.64282"
       y1="607.01343"
       x1="80.928574"
       spreadMethod="pad"
       gradientTransform="matrix(0.93543972,0,0,0.92315936,263.79314,13.781182)"
       gradientUnits="userSpaceOnUse"
       id="linearGradient3887"
       xlink:href="#linearGradient3621"
       inkscape:collect="always" />
    <linearGradient
       gradientTransform="translate(120,-4.1349623e-8)"
       y2="607.01343"
       x2="567.64282"
       y1="607.01343"
       x1="80.928574"
       spreadMethod="pad"
       gradientUnits="userSpaceOnUse"
       id="linearGradient3889"
       xlink:href="#linearGradient3621"
       inkscape:collect="always" />
    <linearGradient
       y2="607.01343"
       x2="567.64282"
       y1="607.01343"
       x1="80.928574"
       spreadMethod="pad"
       gradientTransform="translate(1.6773139e-7,-31.428572)"
       gradientUnits="userSpaceOnUse"
       id="linearGradient4622"
       xlink:href="#linearGradient3621"
       inkscape:collect="always" />
    <linearGradient
       y2="607.01343"
       x2="567.64282"
       y1="607.01343"
       x1="80.928574"
       spreadMethod="pad"
       gradientTransform="matrix(0.93543972,0,0,0.92315936,143.79314,-17.64739)"
       gradientUnits="userSpaceOnUse"
       id="linearGradient4624"
       xlink:href="#linearGradient3621"
       inkscape:collect="always" />
    <filter
       id="filter8348"
       inkscape:label="Specular light"
       inkscape:menu="ABCs"
       inkscape:menu-tooltip="Basic specular bevel to use for building textures"
       color-interpolation-filters="sRGB">
      <feGaussianBlur
         id="feGaussianBlur8350"
         result="result0"
         in="SourceAlpha"
         stdDeviation="6" />
      <feSpecularLighting
         id="feSpecularLighting8352"
         specularExponent="25"
         specularConstant="1"
         surfaceScale="10"
         lighting-color="#ffffff"
         result="result1"
         in="result0">
        <feDistantLight
           id="feDistantLight8354"
           azimuth="235"
           elevation="45" />
      </feSpecularLighting>
      <feComposite
         id="feComposite8356"
         in2="result1"
         k3="1"
         k2="1"
         operator="arithmetic"
         result="result4"
         in="SourceGraphic"
         k1="0"
         k4="0" />
      <feComposite
         id="feComposite8358"
         in2="SourceAlpha"
         operator="in"
         result="result2"
         in="result4" />
    </filter>
    <linearGradient
       inkscape:collect="always"
       xlink:href="#linearGradient10390"
       id="linearGradient10396"
       x1="-28.258823"
       y1="737.33551"
       x2="703.92487"
       y2="737.33551"
       gradientUnits="userSpaceOnUse"
       gradientTransform="matrix(0.34643667,-0.00936413,0.00869296,0.32160589,-18.084693,718.41685)" />
    <linearGradient
       inkscape:collect="always"
       xlink:href="#linearGradient10390"
       id="linearGradient2850"
       gradientUnits="userSpaceOnUse"
       x1="-28.258823"
       y1="737.33551"
       x2="703.92487"
       y2="737.33551"
       gradientTransform="matrix(0.31273364,0,0,0.35404697,-17.850062,652.50294)"
       spreadMethod="pad" />
    <linearGradient
       inkscape:collect="always"
       xlink:href="#linearGradient3977"
       id="linearGradient3983"
       x1="129.5"
       y1="253.85716"
       x2="130.49998"
       y2="1.0000153"
       gradientUnits="userSpaceOnUse" />
  </defs>
  <metadata
     id="metadata7">
    <rdf:RDF>
      <cc:Work
         rdf:about="">
        <dc:format>image/svg+xml</dc:format>
        <dc:type
           rdf:resource="http://purl.org/dc/dcmitype/StillImage" />
        <dc:title></dc:title>
      </cc:Work>
    </rdf:RDF>
  </metadata>
  <g
     id="layer1"
     inkscape:groupmode="layer"
     inkscape:label="Layer 1"
     transform="translate(26.830252,-797.09903)">
    <rect
       style="fill:url(#linearGradient3983);fill-rule:evenodd;stroke:#000000;stroke-width:1px;stroke-linecap:butt;stroke-linejoin:miter;stroke-opacity:1;fill-opacity:1"
       id="rect3207"
       width="257.14285"
       height="258.57144"
       x="1.4285715"
       y="1.7142857"
       transform="translate(-26.830252,797.09903)" />
    <path
       style="fill:url(#linearGradient10396);fill-opacity:1;stroke:#000000;stroke-width:2.0484612;stroke-linecap:butt;stroke-linejoin:miter;stroke-miterlimit:4;stroke-opacity:1;stroke-dasharray:none;stroke-dashoffset:0"
       d="m 158.09946,1051.4762 c 3.61393,-0.7221 6.9449,-2.5424 9.8126,-4.8572 2.86769,-2.3148 5.30332,-5.1176 7.58161,-8.0144 4.55658,-5.7936 8.69818,-12.1714 14.84389,-16.2406 3.53877,-2.3431 7.69551,-3.828 11.93883,-3.9126 4.00947,-0.08 8.03487,1.1095 11.35704,3.3557 3.32217,2.2462 5.9256,5.5387 7.34516,9.2893 -1.98147,-3.0699 -5.54052,-5.0586 -9.19349,-5.1372 -3.65297,-0.079 -7.29424,1.7553 -9.4059,4.7371 -1.94408,2.7452 -2.56066,6.3576 -1.76728,9.6266 0.79338,3.2689 2.95084,6.159 5.78806,7.9661 2.83722,1.8071 6.315,2.541 9.65864,2.1727 3.34363,-0.3683 6.54003,-1.8144 9.11757,-3.9758 4.08228,-3.4233 6.5699,-8.6748 6.63269,-14.0021 0.0628,-5.3272 -2.30036,-10.636 -6.30081,-14.1545 -4.16015,-0.6711 -8.31157,-1.3963 -12.45286,-2.1753 -10.27394,-1.9327 -20.60387,-4.2374 -29.97958,-8.8618 -12.25356,-6.0439 -22.40583,-15.88542 -29.98303,-27.25485 -4.7155,-7.07552 -8.51374,-14.82176 -10.61689,-23.06043 -2.10316,-8.23867 -2.47131,-16.98898 -0.46266,-25.2512 2.00864,-8.26222 6.46759,-16.00492 13.00711,-21.43941 6.53952,-5.43448 15.19271,-8.42799 23.65637,-7.61232 4.83255,0.46573 9.50436,2.1283 13.75111,4.48108 10.17438,5.6368 17.98126,15.40239 21.23939,26.56824 3.25813,11.16584 1.92827,23.59747 -3.61801,33.82148 14.48741,-12.86044 22.3224,-32.84716 20.43428,-52.12698 -1.88813,-19.27981 -13.45177,-37.36677 -30.15891,-47.17225 -10.78649,-6.33063 -23.28683,-9.24374 -35.74465,-10.35191 -31.80322,-2.82901 -64.66623,6.05912 -90.187019,25.24603 -12.161273,9.14302 -22.587554,20.45374 -31.592166,32.71785 -6.75015,9.19358 -12.762318,18.98162 -20.473903,27.38506 -7.711586,8.40344 -17.4895789,15.49077 -28.734291,17.39939 -4.587748,0.7787 -9.324295,0.67097 -13.871893,-0.31552 l 32.922242,47.49544 c -3.1290891,-2.521 -6.9087108,-4.2275 -10.8690469,-4.9073 -3.9603362,-0.6799 -8.0926914,-0.3317 -11.8834021,1.0014 -3.79071,1.333 -7.231453,3.6479 -9.894533,6.657 -2.663081,3.0091 -4.542652,6.7057 -5.405078,10.6303 -0.862425,3.9246 -0.705812,8.0687 0.450373,11.917 1.156185,3.8484 3.309403,7.3926 6.192002,10.192 2.8826,2.7995 6.488252,4.8482 10.3687642,5.8913 3.8805117,1.0431 8.02736278,1.0784 11.9250874,0.1016 5.0288049,-1.2603 9.5385774,-4.1546 13.3162874,-7.7052 3.777709,-3.5505 6.879541,-7.7521 9.811633,-12.0277 2.932092,-4.2755 5.723295,-8.6589 8.980867,-12.692 3.257571,-4.033 7.022497,-7.7372 11.52289,-10.3109 7.136988,-4.0815 15.988207,-5.043 23.835155,-2.5894 7.846947,2.4537 14.573696,8.2863 18.114238,15.7065 -4.345764,-4.5495 -10.60464,-7.2103 -16.896132,-7.1829 -4.983169,0.022 -9.96762,1.7133 -13.844107,4.8447 -3.876488,3.1313 -6.59604,7.7007 -7.357012,12.6255 -0.760971,4.9248 0.479285,10.1554 3.485642,14.1296 3.006356,3.9742 7.764788,6.6072 12.739238,6.9026 4.285845,0.2545 8.565301,-1.1751 12.169404,-3.5083 3.604103,-2.3331 6.579855,-5.5308 9.135135,-8.981 5.110559,-6.9004 8.694546,-14.9277 14.516065,-21.2398 5.06481,-5.4916 11.72225,-9.4823 18.93246,-11.4377 7.2102,-1.9553 14.94926,-1.8789 22.14142,0.1418 10.4052,2.9235 19.58637,9.9837 25.08384,19.2892 -1.59182,-2.734 -3.94255,-5.0208 -6.71932,-6.5367 -2.77678,-1.5159 -5.97162,-2.2564 -9.13214,-2.1169 -3.16053,0.1396 -6.27765,1.1589 -8.90999,2.9137 -2.63234,1.7547 -4.77234,4.2399 -6.11697,7.1035 -1.38977,2.9598 -1.92423,6.3141 -1.53114,9.5602 0.3931,3.2461 1.71151,6.3738 3.75443,8.9269 2.04291,2.5531 4.80334,4.5243 7.87851,5.6356 3.07518,1.1113 6.45575,1.3604 9.66218,0.7197"
       id="path3659"
       inkscape:path-effect="#path-effect3663"
       inkscape:original-d="m 158.09946,1051.4762 c 14.59209,2.7448 19.50414,-21.7737 32.2381,-29.1122 3.58758,-2.0675 7.77002,-4.4748 11.93883,-3.9126 7.64216,1.0302 30.13507,20.1524 18.7022,12.645 0,0 -24.89655,-10.6449 -18.59939,-0.4001 6.1372,9.9848 50.49405,48.6319 22.79699,15.7896 -7.28817,-8.6419 0.33188,-28.1566 0.33188,-28.1566 0,0 -7.66445,-2.1768 -12.45286,-2.1753 -69.4392,0.019 -16.48202,2.7514 -29.97958,-8.8618 -15.74538,-13.54721 -26.54496,-14.65317 -29.98303,-27.25485 -7.11956,-26.09553 -0.34811,-65.16647 25.58393,-77.36336 4.34599,-2.04409 -4.03877,-17.3109 13.75111,4.48108 6.23932,8.09023 16.38835,83.71606 17.62138,60.38972 16.58258,-2.61238 11.52892,-73.71824 -9.72463,-99.29923 -7.92708,-9.54111 -26.70229,-10.58985 -35.74465,-10.35191 -41.57491,0.0424 -62.16177,0.40918 -90.187019,25.24603 -21.414673,18.90175 -20.182168,37.06898 -31.592166,32.71785 -197.972895,-75.49573 -37.6022094,43.85675 -49.208194,44.78445 -11.605988,0.9277 -13.871893,-0.31552 -13.871893,-0.31552 0,0 26.2750481,14.59852 32.922242,47.49544 11.906985,-6.2385 -17.979588,45.6859 -9.1158334,41.4833 34.8503464,-16.5239 26.5724394,-40.6991 43.6316774,-42.7358 565.396756,-67.50353 36.180905,14.2438 41.949393,13.1171 4.042784,0.1164 -17.60778,-11.7237 -16.896132,-7.1829 0.711647,4.5409 -10.050193,38.4324 -4.976239,38.5024 7.237617,0.1 -347.627426,-34.0081 35.820604,-33.7291 69.18575,0.05 21.98422,-4.4481 41.07388,-11.2959 19.08964,-6.84769 21.1946,23.9135 25.08384,19.2892 32.71935,5.8246 -19.1847,4.0289 -30.87842,1.3636 -16.82797,-3.8354 10.51025,23.1018 19.76398,24.8424 z"
       sodipodi:nodetypes="saacsscssaaccaccssccsscsssscss"
       inkscape:connector-curvature="0" />
    <path
       sodipodi:nodetypes="saacsscssaaccaccssccascsssscss"
       inkscape:original-d="m 132.95712,1024.1299 c 13.09597,3.4532 18.12474,-23.3727 29.79041,-31.06704 3.28662,-2.16775 7.1181,-4.69147 10.86489,-3.94921 6.86855,1.36069 26.69216,23.06545 16.56213,14.46655 0,0 -22.19854,-12.4505 -16.76794,-0.9929 5.29265,11.1664 44.3627,54.9997 20.17916,18.0474 -6.36363,-9.7235 0.98591,-30.96446 0.98591,-30.96446 0,0 -6.86067,-2.6224 -11.18013,-2.76336 -62.63855,-2.04339 -14.93479,2.53675 -26.82721,-10.63989 -13.87289,-15.37102 -23.58775,-16.90877 -26.38183,-30.87369 -5.78596,-28.91859 1.2749,-71.69795 24.96446,-84.34427 3.97016,-2.1194 -3.22111,-19.16328 12.295,5.3384 5.43096,9.08531 12.742,92.58067 14.42304,66.95676 15.02211,-2.38071 32.18211,-69.64901 16.11594,-98.95242 -9.74215,-17.76891 -47.68079,-24.02025 -55.84332,-24.02736 -37.50393,-1.18952 -54.698293,-0.3942 -80.584225,26.09469 -19.778109,20.15648 -23.514573,28.72457 -33.700931,23.59876 -176.741904,-88.93713 -66.05212,-12.57227 -41.075216,33.70586 4.9934635,9.25207 -12.946061,10.69417 -12.946061,10.69417 0,0 -4.181152,70.44474 1.012882,106.83121 2.986796,1.0941 10.168759,-10.7856 15.7275194,-15.67149 12.5267568,-11.01055 24.1333146,-28.88492 39.5713656,-30.6182 511.665436,-57.4465 36.124087,23.1758 41.355057,22.10808 3.643981,0.24815 -15.597352,-13.42039 -15.066121,-8.40398 0.531228,5.01641 -9.465899,35.69239 -4.890618,35.92039 6.526303,0.3252 -313.287272,-41.46088 32.597586,-29.75231 62.408202,2.11261 19.939442,-4.23945 37.326352,-11.2049 17.38691,-6.96545 18.53566,26.93651 22.15671,21.96522 29.37268,7.38059 -17.4039,3.86169 -27.88732,0.58205 -15.08624,-4.71975 8.91757,25.72584 17.22251,27.91594 z"
       inkscape:path-effect="#path-effect2852"
       id="path2848"
       d="m 132.95712,1024.1299 c 3.55964,-0.8533 6.76678,-2.8666 9.43988,-5.3673 2.67309,-2.5008 4.84962,-5.4826 6.85655,-8.5439 4.01385,-6.1226 7.58746,-12.83036 13.49398,-17.15584 3.15717,-2.31207 6.95298,-3.8476 10.86489,-3.94921 4.02498,-0.10455 8.07054,1.35387 11.10296,4.00261 3.03243,2.64873 5.02157,6.46145 5.45917,10.46394 -1.8686,-2.6049 -4.94724,-4.30208 -8.1474,-4.49158 -3.20017,-0.18949 -6.45759,1.13258 -8.62054,3.49868 -2.20487,2.412 -3.22256,5.827 -2.83598,9.072 0.38658,3.2449 2.13468,6.2804 4.65914,8.3556 2.52446,2.0752 5.78603,3.1966 9.05336,3.2579 3.26733,0.061 6.52616,-0.9146 9.30264,-2.6381 5.18285,-3.2172 8.59107,-9.1211 8.7852,-15.2182 0.19414,-6.0971 -2.8316,-12.20587 -7.79929,-15.74626 -3.7413,-0.86068 -7.46866,-1.78197 -11.18013,-2.76336 -9.3408,-2.46991 -18.71994,-5.38412 -26.82721,-10.63989 -11.46902,-7.43513 -19.57925,-19.01855 -26.38183,-30.87369 -4.62072,-8.05271 -8.79971,-16.42132 -11.4713,-25.31288 -2.67159,-8.89156 -3.79763,-18.3595 -2.26353,-27.51612 1.5341,-9.15663 5.86325,-17.98424 12.85486,-24.09281 3.4958,-3.05429 7.62286,-5.40322 12.07256,-6.7259 4.4497,-1.32268 9.21993,-1.60713 13.77187,-0.69656 4.4088,0.88194 8.54526,2.85752 12.295,5.3384 10.5422,6.97488 18.19645,18.1815 20.8583,30.53875 2.66186,12.35725 0.30035,25.72135 -6.43526,36.41801 16.67431,-9.44245 28.69724,-26.70004 31.77753,-45.61311 3.08029,-18.91307 -2.84523,-39.09384 -15.66159,-53.33931 -13.93096,-15.48435 -35.02361,-23.4136 -55.84332,-24.02736 -28.63355,-0.84411 -56.217695,11.03265 -80.584225,26.09469 -11.670601,7.21412 -22.850816,15.20105 -33.700931,23.59876 -14.007262,10.84126 -27.46741158,22.36726 -41.075216,33.70586 -4.300154,3.58307 -8.61556,7.14784 -12.946061,10.69417 l 1.012882,106.83121 c 5.466363,-4.9926 10.715479,-10.223 15.7275194,-15.67149 5.7437685,-6.24396 11.1950592,-12.79287 17.5456408,-18.41853 6.3505818,-5.62565 13.7446278,-10.3554 22.0257248,-12.19967 8.309584,-1.85062 17.268065,-0.62559 24.775753,3.38796 7.507689,4.01355 13.502476,10.78242 16.579304,18.72012 -3.507197,-4.7829 -9.153892,-7.93267 -15.066121,-8.40398 -4.810288,-0.38347 -9.759994,0.98968 -13.619278,3.88655 -3.859284,2.89687 -6.574321,7.30857 -7.31252,12.07732 -0.738198,4.76875 0.538099,9.83692 3.533193,13.62052 2.995094,3.7836 7.68435,6.2002 12.507987,6.336 3.834196,0.1079 7.628309,-1.1732 10.875884,-3.2142 3.247575,-2.0411 5.982735,-4.8146 8.363187,-7.8223 4.760905,-6.01538 8.206435,-13.03189 13.358515,-18.71581 4.601245,-5.07622 10.528583,-8.97282 17.072052,-11.0032 6.54348,-2.03038 13.69046,-2.16525 20.2543,-0.2017 10.3743,3.10344 18.96334,11.61825 22.15671,21.96522 -3.45521,-4.03771 -8.76823,-6.41709 -14.08135,-6.3062 -5.31313,0.1109 -10.52224,2.70989 -13.80597,6.88825 -2.21046,2.81268 -3.5564,6.29894 -3.78999,9.86854 -0.23359,3.5697 0.64912,7.2073 2.50956,10.2628 1.86045,3.0555 4.69234,5.5128 7.9872,6.906 3.29485,1.3933 7.03698,1.7126 10.51574,0.8786"
       style="fill:url(#linearGradient2850);fill-opacity:1;stroke:#000000;stroke-width:2.04132891;stroke-linecap:butt;stroke-linejoin:miter;stroke-miterlimit:4;stroke-opacity:1;stroke-dasharray:none;stroke-dashoffset:0"
       inkscape:connector-curvature="0" />
  </g>
</svg>
