/* XPM */
static char * gnonograms3_32_xpm[] = {
"32 32 729 2",
"  	c None",
". 	c #EEF5F6",
"+ 	c #F1F8F9",
"@ 	c #F2F9F9",
"# 	c #F3F9F9",
"$ 	c #F3F9FA",
"% 	c #E5F3F4",
"& 	c #E9F7F8",
"* 	c #E9F7F9",
"= 	c #E5F2F4",
"- 	c #D1DBE4",
"; 	c #B9BCD3",
"> 	c #AFACCC",
", 	c #B1AED0",
"' 	c #BDBBDB",
") 	c #D4D8E9",
"! 	c #E2EBF2",
"~ 	c #E7F3F6",
"{ 	c #EAF7F9",
"] 	c #D9EDF0",
"^ 	c #DCF1F4",
"/ 	c #D8ECEF",
"( 	c #B2BAD0",
"_ 	c #ABA1DE",
": 	c #DDD4FF",
"< 	c #FEFFFF",
"[ 	c #E8E2FF",
"} 	c #D8D2F4",
"| 	c #D5D0EC",
"1 	c #D9D5ED",
"2 	c #DDE7F1",
"3 	c #DDF1F4",
"4 	c #DDF2F4",
"5 	c #CCE8EB",
"6 	c #CFEBEF",
"7 	c #CDE8EC",
"8 	c #ABBACF",
"9 	c #9E97D8",
"0 	c #FEFEFF",
"a 	c #E8DFFF",
"b 	c #C3BBF2",
"c 	c #BFB7E9",
"d 	c #C2BCE8",
"e 	c #CAC4EB",
"f 	c #D5CFF1",
"g 	c #E4E0FC",
"h 	c #E0DCF5",
"i 	c #E1DEF1",
"j 	c #E2E7F3",
"k 	c #D1ECEF",
"l 	c #D0ECF0",
"m 	c #D1ECF0",
"n 	c #BFE2E6",
"o 	c #C2E5EB",
"p 	c #B0CBD8",
"q 	c #8882C7",
"r 	c #FBEFFE",
"s 	c #FDFEFE",
"t 	c #D4CAFE",
"u 	c #A59BDE",
"v 	c #A399D7",
"w 	c #AAA2D9",
"x 	c #B2ABDD",
"y 	c #BAB3E1",
"z 	c #C4BDE4",
"A 	c #CDC6E8",
"B 	c #D7D1EE",
"C 	c #DFDAF4",
"D 	c #E7E3F7",
"E 	c #EAE7F5",
"F 	c #EEF0F8",
"G 	c #C4E6EB",
"H 	c #B2DCE2",
"I 	c #B5DFE6",
"J 	c #B6E0E6",
"K 	c #B6DFE5",
"L 	c #8EA2C1",
"M 	c #ACA1FA",
"N 	c #DCD0FE",
"O 	c #958BD6",
"P 	c #9389CF",
"Q 	c #9890D1",
"R 	c #9F96D5",
"S 	c #A9A0D8",
"T 	c #B2A9DC",
"U 	c #B8B2DE",
"V 	c #C0B9E0",
"W 	c #C9C2E4",
"X 	c #D3CDE9",
"Y 	c #DDD8F1",
"Z 	c #E7E2F6",
"` 	c #EEE9F8",
" .	c #F5F3FC",
"..	c #D9E4EE",
"+.	c #B6DFE6",
"@.	c #B7E0E6",
"#.	c #A6D7DD",
"$.	c #A9DAE1",
"%.	c #A5D3DB",
"&.	c #6D71AC",
"*.	c #E3D5FE",
"=.	c #948ADF",
"-.	c #8479C9",
";.	c #867DC9",
">.	c #8F84CB",
",.	c #988FD1",
"'.	c #A197D5",
").	c #A89FD6",
"!.	c #B0A7DA",
"~.	c #C2BBE3",
"{.	c #CBC4E7",
"].	c #D4CEEB",
"^.	c #D8D4ED",
"/.	c #E4DFF3",
"(.	c #F0ECFA",
"_.	c #F4F2FA",
":.	c #F8F6FC",
"<.	c #E3E5F3",
"[.	c #B3DBE3",
"}.	c #AADAE2",
"|.	c #99D1D8",
"1.	c #9CD4DC",
"2.	c #9CD4DD",
"3.	c #92C2CF",
"4.	c #6F68C0",
"5.	c #FCFEFE",
"6.	c #E4D5FE",
"7.	c #7D71CC",
"8.	c #786DC3",
"9.	c #7F72C5",
"0.	c #867CC9",
"a.	c #9287CD",
"b.	c #9A91D2",
"c.	c #9E94D3",
"d.	c #A69DD7",
"e.	c #B1A8DC",
"f.	c #B3ABDC",
"g.	c #B3ACDE",
"h.	c #B8B3E0",
"i.	c #C6BFE5",
"j.	c #DBD6EE",
"k.	c #E1DDF1",
"l.	c #F5F3FB",
"m.	c #FDFBFF",
"n.	c #F3F1FB",
"o.	c #A7D7DF",
"p.	c #9DD4DD",
"q.	c #8DCBD4",
"r.	c #8FCED8",
"s.	c #7FB0C3",
"t.	c #7469CF",
"u.	c #9F92F7",
"v.	c #6D60BE",
"w.	c #6F62BD",
"x.	c #7569C0",
"y.	c #8376C7",
"z.	c #897FCA",
"A.	c #9084CD",
"B.	c #968DD0",
"C.	c #9A91D0",
"D.	c #A79ED8",
"E.	c #A69DD6",
"F.	c #A7A0D8",
"G.	c #B0A8DC",
"H.	c #B3AEDD",
"I.	c #BAB4E0",
"J.	c #C3BDE1",
"K.	c #E3DFF3",
"L.	c #EAE6F5",
"M.	c #EEEBF8",
"N.	c #F1F0F9",
"O.	c #DFECF1",
"P.	c #90CFD8",
"Q.	c #80C5CF",
"R.	c #82C8D3",
"S.	c #6C98B7",
"T.	c #7D6FDE",
"U.	c #FBFDFE",
"V.	c #7F71D9",
"W.	c #6052B8",
"X.	c #6456B7",
"Y.	c #6F61BE",
"Z.	c #796DC2",
"`.	c #8174C7",
" +	c #867BC9",
".+	c #8F83CC",
"++	c #948BCE",
"@+	c #9D94D4",
"#+	c #A49CD4",
"$+	c #9F96D4",
"%+	c #A59DD6",
"&+	c #ACA3D8",
"*+	c #B5AEDE",
"=+	c #BCB6E3",
"-+	c #C5BEE4",
";+	c #CEC9E8",
">+	c #ECE8F7",
",+	c #F1EDF9",
"'+	c #F2F1FA",
")+	c #FAF9FE",
"!+	c #9CD1DB",
"~+	c #84C9D4",
"{+	c #73BFCB",
"]+	c #76C2CF",
"^+	c #5A7EAA",
"/+	c #8C7CF4",
"(+	c #FBFDFD",
"_+	c #695CC9",
":+	c #584AB4",
"<+	c #5C4CB4",
"[+	c #695ABA",
"}+	c #7264BE",
"|+	c #7569C1",
"1+	c #857BC8",
"2+	c #8F83CB",
"3+	c #948ACD",
"4+	c #9E94D5",
"5+	c #9C93D2",
"6+	c #9E95D3",
"7+	c #A39AD3",
"8+	c #B2A8DE",
"9+	c #B9B2E1",
"0+	c #DCD9EF",
"a+	c #ECE7F7",
"b+	c #E5DDF6",
"c+	c #E4E0F2",
"d+	c #FDFAFF",
"e+	c #EFECF8",
"f+	c #F4F3FC",
"g+	c #FAF8FE",
"h+	c #D8EAEF",
"i+	c #77C3CF",
"j+	c #6AB6C5",
"k+	c #475D9C",
"l+	c #9E8FFD",
"m+	c #F8E9FD",
"n+	c #5849BD",
"o+	c #4E3FAD",
"p+	c #5545B1",
"q+	c #6252B7",
"r+	c #6858BA",
"s+	c #6E5FBC",
"t+	c #7468C0",
"u+	c #9C92D2",
"v+	c #9D93D1",
"w+	c #AAA1DA",
"x+	c #B4AADF",
"y+	c #B8B0EF",
"z+	c #B4ADE5",
"A+	c #B8B2E5",
"B+	c #C2BCE9",
"C+	c #D2CCED",
"D+	c #EBE6F5",
"E+	c #F6F4FD",
"F+	c #F9F8FD",
"G+	c #E8F0F6",
"H+	c #6CBCCB",
"I+	c #353F95",
"J+	c #9381FD",
"K+	c #CBBCFD",
"L+	c #4B3BB4",
"M+	c #4334A7",
"N+	c #4D3CAC",
"O+	c #5A4BB3",
"P+	c #5E4DB6",
"Q+	c #6455B8",
"R+	c #6D5FBC",
"S+	c #9D93D3",
"T+	c #A69CD8",
"U+	c #9C94D3",
"V+	c #A59ED7",
"W+	c #ADA6DB",
"X+	c #B2ACDE",
"Y+	c #B9B2E0",
"Z+	c #C3BEE1",
"`+	c #F1EFF7",
" @	c #EBE7F7",
".@	c #F4F2FB",
"+@	c #FAF8FD",
"@@	c #F8F7FC",
"#@	c #66B2C5",
"$@	c #210E94",
"%@	c #8474F6",
"&@	c #3F2FAC",
"*@	c #3D2AA5",
"=@	c #4534AA",
"-@	c #5242AE",
";@	c #6455B7",
">@	c #998FCE",
",@	c #9F97D2",
"'@	c #9E96D4",
")@	c #ABA3D9",
"!@	c #B0A9DB",
"~@	c #B7B1DF",
"{@	c #C2BEE4",
"]@	c #DAD4ED",
"^@	c #E7E2F3",
"/@	c #F2F0F9",
"(@	c #FBF9FE",
"_@	c #FBFAFE",
":@	c #89BACD",
"<@	c #210F97",
"[@	c #3F2EB0",
"}@	c #3321A0",
"|@	c #402DA8",
"1@	c #4837AA",
"2@	c #4B3BAB",
"3@	c #5444B0",
"4@	c #958CCF",
"5@	c #9B92D0",
"6@	c #9A92D1",
"7@	c #9D96D3",
"8@	c #A29BD5",
"9@	c #AAA2D8",
"0@	c #B4AEDF",
"a@	c #B2B1DD",
"b@	c #ACB6D8",
"c@	c #CAD2E6",
"d@	c #A9BAD7",
"e@	c #CCD0E6",
"f@	c #FCFAFF",
"g@	c #F5F4F9",
"h@	c #B0CBDB",
"i@	c #3723A9",
"j@	c #3B28A4",
"k@	c #402CA8",
"l@	c #4231A7",
"m@	c #4B3AAB",
"n@	c #978ED1",
"o@	c #A49CD5",
"p@	c #9D93D5",
"q@	c #9B94D1",
"r@	c #A49BD6",
"s@	c #ABA4D9",
"t@	c #90A2CD",
"u@	c #6398B9",
"v@	c #7FABC6",
"w@	c #5A97B7",
"x@	c #5E9AB9",
"y@	c #76A4C3",
"z@	c #FCF9FC",
"A@	c #C9DAE7",
"B@	c #1F0A96",
"C@	c #3A26AC",
"D@	c #3624A3",
"E@	c #3B28A5",
"F@	c #5C4BB4",
"G@	c #9B92D1",
"H@	c #A096D4",
"I@	c #9C93CF",
"J@	c #9B93D1",
"K@	c #A69DD8",
"L@	c #8B99CA",
"M@	c #5C90B7",
"N@	c #518EB3",
"O@	c #518DB2",
"P@	c #5690B4",
"Q@	c #F1EFF9",
"R@	c #F5F5FB",
"S@	c #FAF7FF",
"T@	c #D8E2EE",
"U@	c #3823AA",
"V@	c #4131A7",
"W@	c #5B4AB3",
"X@	c #9E94D4",
"Y@	c #A59CD5",
"Z@	c #A89ED6",
"`@	c #9E95D1",
" #	c #A197D7",
".#	c #9997D1",
"+#	c #678DB9",
"@#	c #4C85AE",
"##	c #5288AF",
"$#	c #F2F0FA",
"%#	c #94B2CB",
"&#	c #E6E8F3",
"*#	c #D9E1EE",
"=#	c #3722A9",
"-#	c #3320A0",
";#	c #3B27A4",
">#	c #3F2FA6",
",#	c #4736A7",
"'#	c #4F3FAC",
")#	c #5847B1",
"!#	c #6151B3",
"~#	c #6A5CB9",
"{#	c #7367BF",
"]#	c #A59BD4",
"^#	c #A297D8",
"/#	c #9294CC",
"(#	c #5982B1",
"_#	c #477CA9",
":#	c #7498BC",
"<#	c #6E95B9",
"[#	c #CDD5E5",
"}#	c #C9D4E5",
"|#	c #1F0A97",
"1#	c #3622A8",
"2#	c #311E9E",
"3#	c #3724A0",
"4#	c #3F2DA8",
"5#	c #4837AC",
"6#	c #5242B1",
"7#	c #5A49B6",
"8#	c #6352B9",
"9#	c #6A5CBB",
"0#	c #7064BC",
"a#	c #7E71C4",
"b#	c #847AC7",
"c#	c #8C80C8",
"d#	c #9389CC",
"e#	c #AEA5D8",
"f#	c #B5AEDD",
"g#	c #A299D5",
"h#	c #9295CD",
"i#	c #5179AB",
"j#	c #4172A4",
"k#	c #4D7AA8",
"l#	c #4273A4",
"m#	c #B2BFD6",
"n#	c #9DB1CD",
"o#	c #331FA5",
"p#	c #2D1B9B",
"q#	c #3825A6",
"r#	c #402EA9",
"s#	c #6759B9",
"t#	c #7165BF",
"u#	c #7B6EC1",
"v#	c #8076C3",
"w#	c #8D82CD",
"x#	c #968CD0",
"y#	c #B1A7DB",
"z#	c #B5AFDC",
"A#	c #B5ADDB",
"B#	c #9795CF",
"C#	c #496FA5",
"D#	c #3C699F",
"E#	c #3C69A0",
"F#	c #92A6C5",
"G#	c #5E80AF",
"H#	c #271399",
"I#	c #2F1CA1",
"J#	c #3925A3",
"K#	c #422DA8",
"L#	c #4433A7",
"M#	c #5A49B2",
"N#	c #6153B4",
"O#	c #695CB2",
"P#	c #7A6DC0",
"Q#	c #8C81CB",
"R#	c #8A81C9",
"S#	c #9285CB",
"T#	c #9990D1",
"U#	c #A59CD6",
"V#	c #B7B0DE",
"W#	c #C2BBE2",
"X#	c #B6B1DC",
"Y#	c #4F6DA6",
"Z#	c #37609A",
"`#	c #37609B",
" $	c #5978A9",
".$	c #39629C",
"+$	c #1E0A97",
"@$	c #26119D",
"#$	c #2F1BA0",
"$$	c #3622A0",
"%$	c #3C28A3",
"&$	c #402FA4",
"*$	c #4838AA",
"=$	c #5446AB",
"-$	c #7E72C5",
";$	c #EDEBF7",
">$	c #9287CC",
",$	c #7A6DC2",
"'$	c #8175C5",
")$	c #8176C6",
"!$	c #887EC8",
"~$	c #9184CB",
"{$	c #978ED0",
"]$	c #A59DD3",
"^$	c #D4CDF4",
"/$	c #8694C0",
"($	c #3E5F98",
"_$	c #315796",
":$	c #335795",
"<$	c #345896",
"[$	c #325796",
"}$	c #1D0A98",
"|$	c #26129D",
"1$	c #2F1D9D",
"2$	c #321F9D",
"3$	c #3A27A4",
"4$	c #422FAA",
"5$	c #4939AD",
"6$	c #5042A4",
"7$	c #E7D7FC",
"8$	c #C4B6FD",
"9$	c #6F63BB",
"0$	c #7A6EC2",
"a$	c #766ABF",
"b$	c #8075C5",
"c$	c #857BC6",
"d$	c #8C7FC7",
"e$	c #958BCB",
"f$	c #ABA4D1",
"g$	c #C3BDE6",
"h$	c #C8C1E6",
"i$	c #CAC3E6",
"j$	c #CBC3E6",
"k$	c #566EA7",
"l$	c #6F80A6",
"m$	c #C3C7DC",
"n$	c #5872A7",
"o$	c #2C4E91",
"p$	c #2D4F91",
"q$	c #1E0A98",
"r$	c #2C199E",
"s$	c #2A1999",
"t$	c #3322A1",
"u$	c #3B28A6",
"v$	c #422FA8",
"w$	c #4334A6",
"x$	c #5243AD",
"y$	c #6150B3",
"z$	c #6A5BBB",
"A$	c #7265C0",
"B$	c #7263BC",
"C$	c #7468BD",
"D$	c #7E72C2",
"E$	c #8F83CD",
"F$	c #9089BB",
"G$	c #FDFDFE",
"H$	c #BEB7DF",
"I$	c #BAB3DF",
"J$	c #9D9ECC",
"K$	c #4E6398",
"L$	c #A8B4D1",
"M$	c #F0EFF9",
"N$	c #2B488F",
"O$	c #27458D",
"P$	c #1E1090",
"Q$	c #271499",
"R$	c #2D1B9F",
"S$	c #3726A3",
"T$	c #5045AB",
"U$	c #4635AC",
"V$	c #3F30A5",
"W$	c #4A3DAC",
"X$	c #6352B8",
"Y$	c #6A5BBC",
"Z$	c #605AAE",
"`$	c #514FA5",
" %	c #7265B9",
".%	c #8074C6",
"+%	c #877CCA",
"@%	c #867BC5",
"#%	c #A39AD2",
"$%	c #BDB4E7",
"%%	c #B5AFDD",
"&%	c #C1BAE3",
"*%	c #B3ABDA",
"=%	c #BCB5E2",
"-%	c #C0BADD",
";%	c #EAE6F9",
">%	c #F3F1FA",
",%	c #2B458D",
"'%	c #213C88",
")%	c #223C88",
"!%	c #201090",
"~%	c #27129B",
"{%	c #3320A5",
"]%	c #A697DA",
"^%	c #B7A6E8",
"/%	c #3524A1",
"(%	c #4130A9",
"_%	c #4638A8",
":%	c #31388C",
"<%	c #6259B0",
"[%	c #A99BF9",
"}%	c #D4D8E8",
"|%	c #54509E",
"1%	c #7F73C5",
"2%	c #7A6EBE",
"3%	c #8377C8",
"4%	c #988ECF",
"5%	c #B0A6DB",
"6%	c #B6B0DF",
"7%	c #918FC6",
"8%	c #7C7BBA",
"9%	c #A8A1CC",
"0%	c #D8D1F5",
"a%	c #EDE9F8",
"b%	c #DAD8EB",
"c%	c #475693",
"d%	c #1F3482",
"e%	c #1C3283",
"f%	c #210E97",
"g%	c #2D18A4",
"h%	c #7866CA",
"i%	c #4835C1",
"j%	c #3121A0",
"k%	c #3B2AA5",
"l%	c #3C2FA3",
"m%	c #1D2B83",
"n%	c #3C3A94",
"o%	c #A396F8",
"p%	c #E5D6FC",
"q%	c #6F62BA",
"r%	c #7A6EC3",
"s%	c #6762AF",
"t%	c #7369BC",
"u%	c #6A64B7",
"v%	c #3E4697",
"w%	c #46519A",
"x%	c #3E4A93",
"y%	c #535892",
"z%	c #BFC2DB",
"A%	c #9CA3C7",
"B%	c #C4BDE3",
"C%	c #CFC9E9",
"D%	c #D0CAE9",
"E%	c #A3A2CC",
"F%	c #656EA0",
"G%	c #D3D7E6",
"H%	c #A4A8CA",
"I%	c #182A7E",
"J%	c #17297E",
"K%	c #1A0793",
"L%	c #200B99",
"M%	c #221098",
"N%	c #2A1899",
"O%	c #3523A3",
"P%	c #3627A0",
"Q%	c #1D2282",
"R%	c #111F79",
"S%	c #3B3899",
"T%	c #5D4EB3",
"U%	c #6A5BBA",
"V%	c #796CC3",
"W%	c #8476CA",
"X%	c #6F64BA",
"Y%	c #625BB0",
"Z%	c #293288",
"`%	c #112079",
" &	c #6A69A6",
".&	c #FBFBFD",
"+&	c #CFC8F4",
"@&	c #CAC5E7",
"#&	c #C9C3E6",
"$&	c #B5B2CB",
"%&	c #C9CADF",
"&&	c #F0EEF7",
"*&	c #737BAC",
"=&	c #253281",
"-&	c #12207A",
";&	c #160A88",
">&	c #1E0A96",
",&	c #26129B",
"'&	c #2D1AA0",
")&	c #2F209E",
"!&	c #1B1B83",
"~&	c #0C1674",
"{&	c #191E7E",
"]&	c #594DB2",
"^&	c #6A5ABB",
"/&	c #776AC1",
"(&	c #7B6AD0",
"_&	c #665CB6",
":&	c #31328D",
"<&	c #0C1675",
"[&	c #9891CC",
"}&	c #B0A8DD",
"|&	c #B1AADA",
"1&	c #BFB7E5",
"2&	c #CEC9E9",
"3&	c #C6BDEB",
"4&	c #C4BCE3",
"5&	c #A8A5D0",
"6&	c #FCFDFE",
"7&	c #F0EEF8",
"8&	c #B0B2D0",
"9&	c #999CC2",
"0&	c #373F8D",
"a&	c #090C72",
"b&	c #140D85",
"c&	c #221294",
"d&	c #1F158C",
"e&	c #0E1178",
"f&	c #060D70",
"g&	c #1C1E80",
"h&	c #4A40A5",
"i&	c #5E50B3",
"j&	c #564DAA",
"k&	c #2F2E8D",
"l&	c #080E70",
"m&	c #070D70",
"n&	c #5554A1",
"o&	c #AAA1D9",
"p&	c #B4ACDE",
"q&	c #BDB6E2",
"r&	c #B1A9DC",
"s&	c #C1BAE6",
"t&	c #9592C7",
"u&	c #303488",
"v&	c #DCDAEF",
"w&	c #E8E4F5",
"x&	c #E5E3F0",
"y&	c #F6F6FB",
"z&	c #DBD9EC",
"A&	c #595D9D",
"B&	c #010469",
"C&	c #01046B",
"D&	c #03066D",
"E&	c #131478",
"F&	c #232084",
"G&	c #18177C",
"H&	c #04076D",
"I&	c #2B2B85",
"J&	c #6763AB",
"K&	c #A098D1",
"L&	c #817DBC",
"M&	c #1A1D7B",
"N&	c #01056B",
"O&	c #0C1071",
"P&	c #3A3D8C",
"Q&	c #8E8EBD",
"R&	c #F4F2FE",
"S&	c #ACAACF",
"T&	c #2E3184",
". + + + + + @ @ @ @ @ @ @ @ @ @ @ @ @ @ @ # # # # # # # # $ $ $ ",
"% & & & & & & & & * * * * * = - ; > , ' ) ! ~ { { { { { { { { { ",
"] ^ ^ ^ ^ ^ ^ ^ ^ ^ ^ ^ / ( _ : < < < [ } | 1 2 3 3 3 4 4 4 4 4 ",
"5 6 6 6 6 6 6 6 6 6 7 8 9 0 < a b c d e f g h i j k l l l l m m ",
"n o o o o o o o o p q r s t u v w x y z A B C D E F G G G G G G ",
"H I I I J J J K L M s N O P Q R S T U V W X Y Z `  ...+.@.@.@.@.",
"#.$.$.$.$.$.%.&.*.s =.-.;.>.,.'.).!.y ~.{.].^./.(._.:.<.[.}.}.}.",
"|.1.2.2.2.3.4.5.6.7.8.9.0.a.b.c.d.e.f.g.h.i.j.k.` l.m.E n.o.p.p.",
"q.r.r.r.s.t.5.u.v.w.x.y.z.A.B.C.D.E.F.G.H.I.J.K.L.l.m.M.N.O.P.P.",
"Q.R.R.S.T.U.V.W.X.Y.Z.`. +.+++@+#+$+%+&+*+=+-+;+>+l.m.,+'+)+!+~+",
"{+]+^+/+(+_+:+<+[+}+|+9.1+2+3+4+5+6+7+8+9+0+a+b+c+l.d+e+f+g+h+i+",
"j+k+l+m+n+o+p+q+r+s+t+9.1+2+3+4+u+v+w+x+y+z+A+B+C+_.m.D+E+F+G+H+",
"I+J+K+L+M+N+O+P+Q+R+t+9.1+2+3+4+C.S+T+U+V+W+X+Y+Z+_.`+ @.@+@@@#@",
"$@%@&@*@=@-@p+<+;@R+t+9.1+2+++4+>@4+,@'@d.)@!@~@{@.@]@^@/@(@_@:@",
"<@[@}@|@1@2@3@<+;@R+t+9.1+2+4@@+5@4+6@7@8@9@0@a@b@c@d@e@/@f@g@h@",
"<@i@j@k@l@m@3@<+;@R+t+9.1+2+n@C.o@p@5@q@r@s@t@u@v@w@x@y@N.f@z@A@",
"B@C@D@E@l@m@3@F@;@R+t+9.1+2+n@G@D.H@I@J@K@L@M@N@O@N@N@P@Q@R@S@T@",
"B@U@}@j@V@m@3@W@;@R+t+9.1+2+n@X@Y@Z@`@ #.#+#@#@#@#@#@###$#%#&#*#",
"B@=#-#;#>#,#'#)#!#~#{#9.1+2+n@X@]#e.Y@^#/#(#_#_#_#_#_#:#<#_#[#}#",
"|#1#2#3#4#5#6#7#8#9#0#a#b#c#d#C.]#e#f#g#h#i#j#j#j#j#j#k#j#l#m#n#",
"|#o#p#q#r#1@o+3@F@s#t#u#v#w#x#4+D.y#z#A#B#C#D#D#E#E#E#E#E#E#F#G#",
"|#H#I#J#K#L#2@-@M#N#O#P#-.Q#R#S#T#U#V#W#X#Y#Z#`#`#`#`#`#`#Z# $.$",
"+$@$#$$$%$&$*$=$-$;$>$,$'$)$!$~${$X@]$^$W ;+/$($_$_$_$_$_$:$<$[$",
"}$|$1$2$3$4$5$6$7$8$9$0$a$b$c$d$e$f$g$h$i$j$k$l$m$n$o$o$o$p$o$o$",
"q$r$s$t$u$v$w$x$y$z$A$B$C$D$0.E$F$G$G$H$h$I$J$K$L$M$N$O$O$O$O$O$",
"P$Q$R$S$T$U$V$W$X$Y$Z$`$ %.%+%@%#%$%%%&%*%=%-%;%G$>%,%'%'%'%)%)%",
"!%~%{%]%^%/%(%_%:%<%[%}%|%1%2%3%4%5%6%7%8%9%0%c+a%b%c%d%e%e%e%e%",
"f%g%h%i%j%k%l%m%n%o%p%q%r%s%t%u%v%w%x%y%z%A%B%C%D%E%F%G%H%I%J%J%",
"K%L%M%N%O%P%Q%R%S%T%U%V%W%X%Y%Z%`%`% &.&.&+&-+@&V #&$&%&&&*&=&-&",
";&>&,&'&)&!&~&~&{&]&^&/&(&_&:&<&<&<&[&}&|&1&2&3&4&5&D 6&7&8&9&0&",
"a&b&c&d&e&f&f&f&f&g&h&i&j&k&l&m&m&m&n&o&p&q&r&s&t&u&v&w&x&y&z&A&",
"B&C&C&C&C&C&C&C&C&D&E&F&G&H&C&C&C&C&C&I&J&K&c L&M&N&O&P&Q&R&S&T&"};
