<?xml version="1.0" encoding="UTF-8" standalone="no"?>
<!-- Created with Inkscape (http://www.inkscape.org/) -->

<svg
   xmlns:dc="http://purl.org/dc/elements/1.1/"
   xmlns:cc="http://creativecommons.org/ns#"
   xmlns:rdf="http://www.w3.org/1999/02/22-rdf-syntax-ns#"
   xmlns:svg="http://www.w3.org/2000/svg"
   xmlns="http://www.w3.org/2000/svg"
   xmlns:sodipodi="http://sodipodi.sourceforge.net/DTD/sodipodi-0.dtd"
   xmlns:inkscape="http://www.inkscape.org/namespaces/inkscape"
   width="48"
   height="48"
   id="svg2"
   version="1.1"
   inkscape:version="0.47 r22583"
   sodipodi:docname="gnonograms.svg"
   inkscape:export-filename="/media/shared/shared data/Vala/Gnonograms/icons/gnonograms.png"
   inkscape:export-xdpi="190.28319"
   inkscape:export-ydpi="190.28319">
  <defs
     id="defs4">
    <inkscape:perspective
       sodipodi:type="inkscape:persp3d"
       inkscape:vp_x="0 : 526.18109 : 1"
       inkscape:vp_y="0 : 1000 : 0"
       inkscape:vp_z="744.09448 : 526.18109 : 1"
       inkscape:persp3d-origin="372.04724 : 350.78739 : 1"
       id="perspective10" />
    <inkscape:perspective
       id="perspective2886"
       inkscape:persp3d-origin="0.5 : 0.33333333 : 1"
       inkscape:vp_z="1 : 0.5 : 1"
       inkscape:vp_y="0 : 1000 : 0"
       inkscape:vp_x="0 : 0.5 : 1"
       sodipodi:type="inkscape:persp3d" />
  </defs>
  <sodipodi:namedview
     id="base"
     pagecolor="#ffffff"
     bordercolor="#666666"
     borderopacity="1.0"
     inkscape:pageopacity="0.0"
     inkscape:pageshadow="2"
     inkscape:zoom="9.5035151"
     inkscape:cx="10.136208"
     inkscape:cy="27.383727"
     inkscape:document-units="px"
     inkscape:current-layer="layer1"
     showgrid="true"
     inkscape:window-width="1280"
     inkscape:window-height="765"
     inkscape:window-x="0"
     inkscape:window-y="1"
     inkscape:window-maximized="1">
    <inkscape:grid
       type="xygrid"
       id="grid2816"
       empspacing="5"
       visible="true"
       enabled="true"
       snapvisiblegridlinesonly="true" />
  </sodipodi:namedview>
  <metadata
     id="metadata7">
    <rdf:RDF>
      <cc:Work
         rdf:about="">
        <dc:format>image/svg+xml</dc:format>
        <dc:type
           rdf:resource="http://purl.org/dc/dcmitype/StillImage" />
        <dc:title></dc:title>
      </cc:Work>
    </rdf:RDF>
  </metadata>
  <g
     inkscape:label="Layer 1"
     inkscape:groupmode="layer"
     id="layer1"
     transform="translate(0,-1004.3622)">
    <rect
       style="fill:#f9f9f9;fill-rule:evenodd;stroke:#000000;stroke-width:1px;stroke-linecap:butt;stroke-linejoin:miter;stroke-opacity:1"
       id="rect2818"
       width="40"
       height="37"
       x="7"
       y="9"
       transform="translate(0,1004.3622)"
       inkscape:export-filename="/media/shared/shared data/Vala/Gnonograms/icons/gnonograms.png"
       inkscape:export-xdpi="219.51219"
       inkscape:export-ydpi="219.51219" />
    <rect
       style="fill:#e6e6e6;fill-rule:evenodd;stroke:#000000;stroke-width:0.5;stroke-linecap:butt;stroke-linejoin:miter;stroke-opacity:1"
       id="rect2820"
       width="39.999996"
       height="5.9999657"
       x="7"
       y="1007.3622" />
    <rect
       style="fill:#e6e6e6;fill-rule:evenodd;stroke:#000000;stroke-width:0.5;stroke-linecap:butt;stroke-linejoin:miter;stroke-opacity:1"
       id="rect2822"
       width="5.4186778"
       height="36.722515"
       x="1"
       y="9.2774858"
       transform="translate(0,1004.3622)" />
    <path
       sodipodi:type="spiral"
       style="fill:none;stroke:#000000;stroke-width:3;stroke-linecap:butt;stroke-linejoin:miter;stroke-opacity:1"
       id="path2828"
       sodipodi:cx="12.521683"
       sodipodi:cy="12.960334"
       sodipodi:expansion="1"
       sodipodi:revolution="3"
       sodipodi:radius="17.924673"
       sodipodi:argument="-18.320969"
       sodipodi:t0="0"
       d="m 12.521683,12.960334 c 0.776058,0.453234 -0.228071,1.269721 -0.753305,1.28986 C 10.345025,14.304769 9.6764235,12.638856 9.9419627,11.453723 10.41695,9.3337989 12.865789,8.4569745 14.781598,9.0907537 17.593126,10.02085 18.703839,13.342661 17.681123,15.973555 16.318004,19.480122 12.095888,20.829737 8.7551567,19.409634 4.5511869,17.622579 2.9607348,12.488643 4.7825225,8.4405025 6.9889515,3.537662 13.040624,1.705367 17.794819,3.9313135 23.397474,6.5545145 25.47222,13.527367 22.840563,18.986776 19.802211,25.289878 11.905995,27.607476 5.7419358,24.569074 -1.2620599,21.116649 -3.8227892,12.295596 -0.37691768,5.4272817 3.4888293,-2.2779292 13.235759,-5.0819943 20.80804,-1.2281266 29.214707,3.050397 32.262262,13.723967 28.000003,21.999996"
       transform="translate(12.478317,1019.4019)" />
    <path
       sodipodi:type="spiral"
       style="fill:none;stroke:#000000;stroke-width:1px;stroke-linecap:butt;stroke-linejoin:miter;stroke-opacity:1"
       id="path2872"
       sodipodi:cx="1"
       sodipodi:cy="2"
       sodipodi:expansion="1"
       sodipodi:revolution="3"
       sodipodi:radius="4.2426405"
       sodipodi:argument="-18.064157"
       sodipodi:t0="0.0042920811"
       d="M 1.0117935,2.0138747 C 1.1386313,2.1901339 0.83736666,2.2810003 0.71673905,2.2407718 0.38880824,2.131409 0.37097883,1.6983686 0.53024991,1.4473528 0.81082705,1.0051553 1.4371616,1.0021836 1.8220334,1.3012716 2.3831703,1.7373372 2.3698382,2.5774941 1.9277067,3.0914196 1.3405659,3.7739012 0.28041753,3.7432824 -0.36080581,3.1566849 -1.1658321,2.4202389 -1.1174728,1.1374779 -0.38566323,0.36980797 0.4992136,-0.55842981 2.0059453,-0.49209829 2.8995782,0.38535848 3.9514324,1.4181724 3.866998,3.1496713 2.8436198,4.1689645 1.663174,5.3446983 -0.29360002,5.2420812 -1.4383507,4.0725981 -2.7381446,2.744722 -2.6172929,0.56232858 -1.3015764,-0.70773689 0.17358986,-2.1317197 2.581847,-1.9925981 3.9771231,-0.53055466 5.4337723,0.99579874 5.3952306,3.4484376 3.999999,5.0000007"
       transform="matrix(0.669298,0,0,0.66510948,2.3228086,1008.0228)" />
    <rect
       style="fill:#ff0000"
       id="rect2874"
       width="0.42163664"
       height="0.044104978"
       x="1.5783633"
       y="24.955894"
       transform="translate(0,1004.3622)" />
    <rect
       style="fill:#0000ff"
       id="rect2876"
       width="1.1663437"
       height="5.5620713"
       x="24.833656"
       y="1007.8001" />
    <rect
       style="fill:#0000ff"
       id="rect2876-0"
       width="1.1663437"
       height="5"
       x="1031.1958"
       y="-6"
       transform="matrix(0,1,-1,0,0,0)" />
  </g>
</svg>
