/* XPM */
static char * gnonograms32_xpm[] = {
"32 32 552 2",
"  	c None",
". 	c #A7B2B4",
"+ 	c #C4D3D3",
"@ 	c #C5D3D3",
"# 	c #C3D3D5",
"$ 	c #E5F9FA",
"% 	c #D8EBEC",
"& 	c #A3AFB6",
"* 	c #A0A9B3",
"= 	c #A0A7B2",
"- 	c #A1A9B3",
"; 	c #A4AFB5",
"> 	c #CDDDDF",
", 	c #E6F9FB",
"' 	c #BED1D2",
") 	c #DFF5F8",
"! 	c #D3E8EB",
"~ 	c #9AA4B5",
"{ 	c #8D8FAE",
"] 	c #8985AF",
"^ 	c #ABA3D9",
"/ 	c #B6AEDF",
"( 	c #BEB7E3",
"_ 	c #C5C0E6",
": 	c #CDC8EA",
"< 	c #B1AFC6",
"[ 	c #A7ABB7",
"} 	c #ACB8BE",
"| 	c #DEF4F7",
"1 	c #DFF6F8",
"2 	c #B8CDD1",
"3 	c #D8F2F5",
"4 	c #D9F2F5",
"5 	c #C3D9DF",
"6 	c #858BA8",
"7 	c #7A74AB",
"8 	c #958BD2",
"9 	c #9E94D5",
"0 	c #A69DD9",
"a 	c #AEA6DC",
"b 	c #D5D1ED",
"c 	c #DCD9F0",
"d 	c #DDDBEC",
"e 	c #A3A8AF",
"f 	c #C1D6DA",
"g 	c #B2CBCD",
"h 	c #D2EFF2",
"i 	c #CCE8EC",
"j 	c #828CA7",
"k 	c #6E66A6",
"l 	c #8479CB",
"m 	c #8D82CE",
"n 	c #E4E2F4",
"o 	c #EDEBF7",
"p 	c #B8BBBF",
"q 	c #B5CBCE",
"r 	c #AEC9CC",
"s 	c #CCECF0",
"t 	c #A4BAC8",
"u 	c #615F94",
"v 	c #7466C2",
"w 	c #7D70C8",
"x 	c #F5F4FA",
"y 	c #A9AFB0",
"z 	c #C6E5E8",
"A 	c #A8C5CA",
"B 	c #C5E8ED",
"C 	c #C3E6EB",
"D 	c #7988A1",
"E 	c #5D53A3",
"F 	c #6D5EC1",
"G 	c #7567C4",
"H 	c #FBFBFC",
"I 	c #99ABAD",
"J 	c #A2C3C8",
"K 	c #BFE5EA",
"L 	c #A7C8D0",
"M 	c #5B6090",
"N 	c #5A4CB4",
"O 	c #6556BD",
"P 	c #8C82CE",
"Q 	c #948BD2",
"R 	c #9D94D5",
"S 	c #A59DD9",
"T 	c #ADA6DC",
"U 	c #B5ADDE",
"V 	c #BDB6E2",
"W 	c #ADA9CA",
"X 	c #A8A5C0",
"Y 	c #D3CFEB",
"Z 	c #DBD8EF",
"` 	c #E3E1F3",
" .	c #ECEBF7",
"..	c #F4F4FA",
"+.	c #FCFDFE",
"@.	c #A9B1B3",
"#.	c #9DC0C4",
"$.	c #B8E2E7",
"%.	c #8CA9B8",
"&.	c #4D4994",
"*.	c #5544B7",
"=.	c #5D4DBA",
"-.	c #9D93D4",
";.	c #A59CD8",
">.	c #ADA5DB",
",.	c #938DB6",
"'.	c #7E7A9F",
").	c #9B95C1",
"!.	c #A7A1CC",
"~.	c #8F8DA8",
"{.	c #A9A6BB",
"].	c #ECEAF7",
"^.	c #F4F3F9",
"/.	c #FCFCFD",
"(.	c #CFD0D1",
"_.	c #AAD0D6",
":.	c #B9E2E8",
"<.	c #98BDC2",
"[.	c #B2DEE4",
"}.	c #B2DFE5",
"|.	c #7188A1",
"1.	c #443A9A",
"2.	c #4D3BB3",
"3.	c #8C81CD",
"4.	c #948AD1",
"5.	c #9D93D5",
"6.	c #A59CD9",
"7.	c #8F88B7",
"8.	c #8781B3",
"9.	c #AAA3DB",
"0.	c #B1ABDE",
"a.	c #B8B2E1",
"b.	c #BFBAE4",
"c.	c #B3ADCF",
"d.	c #A19FAF",
"e.	c #FDFDFE",
"f.	c #F8F8F8",
"g.	c #8FADB1",
"h.	c #B3DFE5",
"i.	c #92B9C0",
"j.	c #ACDBE2",
"k.	c #A9D8DE",
"l.	c #57668B",
"m.	c #3A2BA1",
"n.	c #4633B0",
"o.	c #8378CB",
"p.	c #8C81CE",
"q.	c #948AD2",
"r.	c #766F9B",
"s.	c #A29AD7",
"t.	c #C6C1E7",
"u.	c #B4B1CD",
"v.	c #C0BECA",
"w.	c #F5F5F5",
"x.	c #738588",
"y.	c #8CB8BE",
"z.	c #97C5CD",
"A.	c #444B83",
"B.	c #3420A6",
"C.	c #3D2AAD",
"D.	c #7467C4",
"E.	c #7C6FC8",
"F.	c #958EC5",
"G.	c #817AAF",
"H.	c #A9A2DB",
"I.	c #B0AADE",
"J.	c #B8B1E1",
"K.	c #CDC9EA",
"L.	c #A19FAE",
"M.	c #DCDCDD",
"N.	c #AFB2B8",
"O.	c #93BAC1",
"P.	c #6B8C9C",
"Q.	c #343384",
"R.	c #2D18A6",
"S.	c #3521A9",
"T.	c #6C5DC1",
"U.	c #7466C4",
"V.	c #7C75A4",
"W.	c #988FD0",
"X.	c #BFB9E4",
"Y.	c #C5C0E7",
"Z.	c #CCC8EA",
"`.	c #A4A1B6",
" +	c #EEEDF3",
".+	c #B8B8BA",
"++	c #F1F1F9",
"@+	c #93A6A9",
"#+	c #211974",
"$+	c #250FA2",
"%+	c #6456BD",
"&+	c #7973A1",
"*+	c #9A91D3",
"=+	c #B4AEDD",
"-+	c #7F879F",
";+	c #7C98A5",
">+	c #81A5AE",
",+	c #708690",
"'+	c #D7D6DC",
")+	c #FAFAFB",
"!+	c #ABABB2",
"~+	c #B4BBBE",
"{+	c #1B0F7D",
"]+	c #5C4DBA",
"^+	c #6455BD",
"/+	c #918AC0",
"(+	c #857EB6",
"_+	c #ADA7DB",
":+	c #6D8091",
"<+	c #91CBD4",
"[+	c #93CED7",
"}+	c #7CA9B0",
"|+	c #E1E0E6",
"1+	c #A4A6A9",
"2+	c #DFDEEB",
"3+	c #F0F0F9",
"4+	c #EBECF0",
"5+	c #1B0F7C",
"6+	c #5C4CBA",
"7+	c #746E9D",
"8+	c #A199D7",
"9+	c #A8A1DA",
"0+	c #76809C",
"a+	c #8AC8D1",
"b+	c #8CCBD4",
"c+	c #8DCBD5",
"d+	c #7A9BA3",
"e+	c #BDC3C9",
"f+	c #7FAEB5",
"g+	c #96A2AB",
"h+	c #F7F8FC",
"i+	c #1B0F79",
"j+	c #5443B7",
"k+	c #7A749F",
"l+	c #A7A0D8",
"m+	c #688B9A",
"n+	c #86C8D2",
"o+	c #586D72",
"p+	c #79ADB4",
"q+	c #749EA7",
"r+	c #E8E8F0",
"s+	c #EEEFF3",
"t+	c #1B1078",
"u+	c #240FA2",
"v+	c #2C18A6",
"w+	c #3421A9",
"x+	c #3C2AAD",
"y+	c #4533B0",
"z+	c #4C3AB3",
"A+	c #9D96C8",
"B+	c #8881B4",
"C+	c #9891C5",
"D+	c #6CA4AF",
"E+	c #80C5CF",
"F+	c #7DC1CB",
"G+	c #AAB1B8",
"H+	c #B2B9BD",
"I+	c #1B1178",
"J+	c #ADA5DC",
"K+	c #7B759B",
"L+	c #8B87B5",
"M+	c #6DADB7",
"N+	c #79C1CC",
"O+	c #7AC1CC",
"P+	c #9BA8AF",
"Q+	c #89A0A4",
"R+	c #1B1176",
"S+	c #3C29AD",
"T+	c #4532B0",
"U+	c #B0A8D9",
"V+	c #7B759C",
"W+	c #5E939F",
"X+	c #73BEC9",
"Y+	c #73BDC8",
"Z+	c #848E94",
"`+	c #69A1AA",
" @	c #191073",
".@	c #240EA1",
"+@	c #2C17A6",
"@@	c #3420A9",
"#@	c #4B3AB2",
"$@	c #443694",
"%@	c #4B3E98",
"&@	c #6354BB",
"*@	c #B5ADDF",
"=@	c #9892B7",
"-@	c #587586",
";@	c #6DBBC7",
">@	c #5D97A0",
",@	c #5C7D84",
"'@	c #1B1376",
")@	c #3C29AC",
"!@	c #30227E",
"~@	c #332582",
"{@	c #4334A4",
"]@	c #4A3BA8",
"^@	c #463A92",
"/@	c #4B4089",
"(@	c #7365C2",
"_@	c #9389D1",
":@	c #8B82BC",
"<@	c #867EB0",
"[@	c #A59DD2",
"}@	c #BDB6E3",
"|@	c #84849F",
"1@	c #5C9DA9",
"2@	c #66B8C4",
"3@	c #5CA2AD",
"4@	c #1B1375",
"5@	c #2C17A5",
"6@	c #321FA1",
"7@	c #241772",
"8@	c #3927A6",
"9@	c #4230AF",
"0@	c #4938B2",
"a@	c #5040B4",
"b@	c #44398D",
"c@	c #443A83",
"d@	c #3F376F",
"e@	c #6F66A6",
"f@	c #5D568D",
"g@	c #746CAE",
"h@	c #877DC1",
"i@	c #7E77AE",
"j@	c #7A749C",
"k@	c #B6B0DB",
"l@	c #C4BFE6",
"m@	c #9B9DB7",
"n@	c #678E9C",
"o@	c #5DAEB9",
"p@	c #60B4C1",
"q@	c #60B4C2",
"r@	c #1B1475",
"s@	c #2B17A1",
"t@	c #1D1464",
"u@	c #3320A8",
"v@	c #3B28AC",
"w@	c #4837B0",
"x@	c #392E79",
"y@	c #6152B7",
"z@	c #53498F",
"A@	c #695EA9",
"B@	c #645B9C",
"C@	c #6A61AB",
"D@	c #8277CA",
"E@	c #897FCD",
"F@	c #9186CF",
"G@	c #998FD3",
"H@	c #988FCB",
"I@	c #797498",
"J@	c #C3BEE5",
"K@	c #CCC7E9",
"L@	c #979FAF",
"M@	c #718C97",
"N@	c #61959F",
"O@	c #54A2AF",
"P@	c #59B1BF",
"Q@	c #1A1574",
"R@	c #230F9E",
"S@	c #2A4173",
"T@	c #2E4F78",
"U@	c #321EA4",
"V@	c #3A27AC",
"W@	c #392C8A",
"X@	c #5949B0",
"Y@	c #6F64B3",
"Z@	c #5D539B",
"`@	c #7B6FC7",
" #	c #8479BC",
".#	c #756F99",
"+#	c #8B84AC",
"@#	c #777293",
"##	c #9A95B5",
"$#	c #CCC7EA",
"%#	c #88899E",
"&#	c #4B7B86",
"*#	c #4C8F9B",
"=#	c #7E959F",
"-#	c #B5BCC2",
";#	c #52949E",
">#	c #53AEBC",
",#	c #1A1472",
"'#	c #243B71",
")#	c #2F5E7F",
"!#	c #315D83",
"~#	c #222B64",
"{#	c #412FAF",
"]#	c #5A4AB4",
"^#	c #7264C0",
"/#	c #4A447E",
"(#	c #716A9B",
"_#	c #9691AE",
":#	c #AEA8CF",
"<#	c #828BA5",
"[#	c #71818D",
"}#	c #6A7F87",
"|#	c #CBCDD2",
"1#	c #7D9EA3",
"2#	c #4DABB9",
"3#	c #16284B",
"4#	c #1C1A7A",
"5#	c #2B17A5",
"6#	c #2B2089",
"7#	c #3A27AB",
"8#	c #4737B1",
"9#	c #34316F",
"0#	c #5F51B3",
"a#	c #6258B0",
"b#	c #3C597B",
"c#	c #367787",
"d#	c #425782",
"e#	c #7B6FC6",
"f#	c #847AC4",
"g#	c #606489",
"h#	c #ACA5DB",
"i#	c #B4ADDE",
"j#	c #BCB6E2",
"k#	c #A8A6C7",
"l#	c #5E6D84",
"m#	c #B2ACD6",
"n#	c #9390A8",
"o#	c #E3E1F4",
"p#	c #ECEAF6",
"q#	c #EDECF2",
"r#	c #76969C",
"s#	c #46A7B6",
"t#	c #18216E",
"u#	c #1D079F",
"v#	c #331FA8",
"w#	c #353A84",
"x#	c #3A90A1",
"y#	c #347A8C",
"z#	c #2F506F",
"A#	c #4C4B94",
"B#	c #6254AC",
"C#	c #4A5187",
"D#	c #53538C",
"E#	c #7971C0",
"F#	c #3C6A82",
"G#	c #447A8F",
"H#	c #9F9ACC",
"I#	c #AEAAD3",
"J#	c #4E6C7D",
"K#	c #5A7B93",
"L#	c #455262",
"M#	c #9B99B6",
"N#	c #B8B7C6",
"O#	c #BAB9C0",
"P#	c #637078",
"Q#	c #4B5F66",
"R#	c #71929B",
"S#	c #548A93",
"T#	c #140A74",
"U#	c #1C059F",
"V#	c #230DA2",
"W#	c #2A15A5",
"X#	c #331EA8",
"Y#	c #3A26AC",
"Z#	c #382C97",
"`#	c #2A5E85",
" $	c #317FA3",
".$	c #2A6486",
"+$	c #5247A5",
"@$	c #6556BE",
"#$	c #7366C4",
"$$	c #7A6EC7",
"%$	c #415681",
"&$	c #3280A3",
"*$	c #3281A4",
"=$	c #386B89",
"-$	c #4B6C89",
";$	c #3C5973",
">$	c #A19CCC",
",$	c #B9B3DE",
"'$	c #A29FBF",
")$	c #ABA8C5",
"!$	c #717989",
"~$	c #346C85",
"{$	c #327D9D",
"]$	c #43697C",
"^$	c #5C6770",
"/$	c #DBDDE4",
"($	c #130D6D",
"_$	c #321DA8",
":$	c #3725A4",
"<$	c #1E346B",
"[$	c #225891",
"}$	c #233E72",
"|$	c #5E4EBB",
"1$	c #7365C4",
"2$	c #545394",
"3$	c #215387",
"4$	c #225991",
"5$	c #225992",
"6$	c #4C5D88",
"7$	c #BBB5E1",
"8$	c #C1BDE4",
"9$	c #8187A6",
"0$	c #255687",
"a$	c #235B92",
"b$	c #566A86",
"c$	c #E5E4F4",
"d$	c #D1D1DC",
"e$	c #F0F0F6",
"f$	c #0D1659",
"g$	c #19068E",
"h$	c #230DA1",
"i$	c #2A15A4",
"j$	c #301C9F",
"k$	c #191D65",
"l$	c #12307F",
"m$	c #142B6F",
"n$	c #4C419C",
"o$	c #6C5DC0",
"p$	c #6056A8",
"q$	c #1E306E",
"r$	c #13327F",
"s$	c #133280",
"t$	c #333F73",
"u$	c #ABA3DA",
"v$	c #B3ABDE",
"w$	c #BAB3E1",
"x$	c #8989AF",
"y$	c #1F3773",
"z$	c #133380",
"A$	c #576185",
"B$	c #E5E3F4",
"C$	c #BDBFCA",
"D$	c #02075C",
"E$	c #05065B",
"F$	c #0E0862",
"G$	c #120B66",
"H$	c #0A095F",
"I$	c #02086D",
"J$	c #03096D",
"K$	c #111462",
"L$	c #342E7D",
"M$	c #2F2B71",
"N$	c #101262",
"O$	c #030A6D",
"P$	c #030A6E",
"Q$	c #030B6E",
"R$	c #040C6B",
"S$	c #3A3A6F",
"T$	c #676390",
"U$	c #565583",
"V$	c #141A65",
"W$	c #040C6E",
"X$	c #0A1168",
"Y$	c #565880",
"Z$	c #6D6F8F",
"`$	c #222868",
". + + + + + + + + + + @ @ @ @ @ @ @ @ @ @ @ @ @ @ @ @ @ @ @ @ @ ",
"# $ $ $ $ $ $ $ $ $ $ $ $ $ $ $ $ % & * = - ; > , , , , , , , , ",
"' ) ) ) ) ) ) ) ) ) ) ) ) ) ! ~ { ] ^ / ( _ : < [ } | 1 1 1 1 1 ",
"2 3 3 3 3 3 3 3 4 4 4 4 5 6 7 8 9 0 a / ( _ : b c d e f 4 4 4 4 ",
"g h h h h h h h h h i j k l m 8 9 0 a / ( _ : b c n o p q h h h ",
"r s s s s s s s s t u v w l m 8 9 0 a / ( _ : b c n o x y z s s ",
"A B B B B B B C D E F G w l m 8 9 0 a / ( _ : b c n o x H I B B ",
"J K K K K K L M N O F G w l P Q R S T U V W X Y Z `  ...+.@.K K ",
"#.$.$.$.$.%.&.*.=.O F G w l P Q -.;.>.,.'.).!.~.{.n ].^./.(._.:.",
"<.[.[.}.|.1.2.*.=.O F G w l 3.4.5.6.7.8.9.0.a.b.c.d.o x e.f.g.h.",
"i.j.k.l.m.n.2.*.=.O F G w o.p.q.5.6.r.s.9.0.a.b.t.u.v.x e.w.x.j.",
"y.z.A.B.C.n.2.*.=.O F D.E.o.p.q.5.F.G.s.H.I.J.b.t.K.L.x e.M.N.O.",
"P.Q.R.S.C.n.2.*.=.O T.U.E.o.p.q.5.V.W.s.H.I.J.X.Y.Z.`. +e..+++@+",
"#+$+R.S.C.n.2.*.=.%+T.U.E.o.p.q.5.&+*+s.H.I.=+-+;+>+,+'+)+!+++~+",
"{+$+R.S.C.n.2.*.]+^+T.U.E.o.p.q.5./+(+s.H._+:+<+[+[+}+|+1+2+3+4+",
"5+$+R.S.C.n.2.*.6+^+T.U.E.o.p.q.5.6.7+8+9+0+a+b+b+c+d+e+f+g+3+h+",
"i+$+R.S.C.n.2.j+6+^+T.U.E.o.p.q.5.6.k+8+l+m+n+n+n+n+o+p+n+q+r+s+",
"t+u+v+w+x+y+z+j+6+^+T.U.E.o.p.q.5.6.A+B+C+D+E+E+E+E+F+E+E+F+G+H+",
"I+u+v+w+x+y+z+j+6+^+T.U.E.o.p.q.5.6.J+K+L+M+N+O+O+O+O+O+O+O+P+Q+",
"R+u+v+w+S+T+z+j+6+^+T.U.E.o.p.q.5.6.J+U+V+W+X+X+X+X+X+X+X+Y+Z+`+",
" @.@+@@@S+T+#@$@%@&@T.U.E.o.p.q.5.6.J+*@=@-@;@;@;@;@;@;@;@>@,@;@",
"'@.@+@@@)@!@~@{@]@^@/@(@E.o.p._@:@<@[@*@}@|@1@2@2@2@2@2@2@3@2@2@",
"4@u+5@6@7@8@9@0@a@b@c@d@E.o.e@f@g@h@i@j@k@l@m@n@o@p@p@p@q@q@q@q@",
"r@u+s@t@u@v@9@w@x@y@T.z@A@B@C@D@E@F@G@H@I@J@K@Y L@M@N@O@P@P@P@P@",
"Q@R@S@T@U@V@9@W@X@^+T.U.Y@Z@`@D@E@ #.#+#@###$#%#&#*#=#-#;#>#>#>#",
",#'#)#!#~#V@{#W@]#^+T.^#/#D.`@D@E@(#J+U V l@_#:#<#[#}#|#1#2#2#2#",
"3#4#u+5#6#7#{#8#9#0#a#b#c#d#e#D@f#g#h#i#j#k#l#m#n#o#p#q#r#s#s#s#",
"t#u#u+5#v#V@{#w#x#y#z#A#B#C#D#E#F#G#H#U I#J#K#L#M#N#o O#P#Q#R#S#",
"T#U#V#W#X#Y#Z#`# $.$+$@$T.#$$$%$&$*$=$-$;$>$i#,$'$)$!$~${$]$^$/$",
"($U#V#W#_$:$<$[$[$}$|$@$T.1$2$3$4$5$5$5$6$h#i#7$8$9$0$a$b$c$d$e$",
"f$g$h$i$j$k$l$l$l$m$n$O o$p$q$r$r$r$s$s$t$u$v$w$x$y$z$z$A$B$ .C$",
"D$E$F$G$H$I$J$J$J$J$K$L$M$N$O$P$P$P$P$Q$R$S$T$U$V$W$W$W$X$Y$Z$`$"};
