<?xml version="1.0" encoding="UTF-8" standalone="no"?>
<!-- Created with Inkscape (http://www.inkscape.org/) -->

<svg
   xmlns:dc="http://purl.org/dc/elements/1.1/"
   xmlns:cc="http://creativecommons.org/ns#"
   xmlns:rdf="http://www.w3.org/1999/02/22-rdf-syntax-ns#"
   xmlns:svg="http://www.w3.org/2000/svg"
   xmlns="http://www.w3.org/2000/svg"
   xmlns:xlink="http://www.w3.org/1999/xlink"
   xmlns:sodipodi="http://sodipodi.sourceforge.net/DTD/sodipodi-0.dtd"
   xmlns:inkscape="http://www.inkscape.org/namespaces/inkscape"
   sodipodi:docname="gnonograms.svg"
   inkscape:version="0.48.3.1 r9886"
   version="1.1"
   id="svg2"
   height="256"
   width="256"
   inkscape:export-filename="/media/Shared/shared_data/Vala/Gnonograms/gnonograms-common-data/icons/gnonograms32.xpm.png"
   inkscape:export-xdpi="11.25"
   inkscape:export-ydpi="11.25">
  <sodipodi:namedview
     id="base"
     pagecolor="#ffffff"
     bordercolor="#666666"
     borderopacity="1.0"
     inkscape:pageopacity="0.0"
     inkscape:pageshadow="2"
     inkscape:zoom="1.4990664"
     inkscape:cx="-2.302645"
     inkscape:cy="102.82805"
     inkscape:document-units="px"
     inkscape:current-layer="layer1"
     showgrid="false"
     inkscape:window-width="1280"
     inkscape:window-height="750"
     inkscape:window-x="0"
     inkscape:window-y="0"
     inkscape:window-maximized="1" />
  <defs
     id="defs4">
    <linearGradient
       id="linearGradient3977">
      <stop
         style="stop-color:#00026a;stop-opacity:1;"
         offset="0"
         id="stop3979" />
      <stop
         id="stop3987"
         offset="0.43478259"
         style="stop-color:#40a4b4;stop-opacity:1;" />
      <stop
         style="stop-color:#effeff;stop-opacity:1;"
         offset="1"
         id="stop3981" />
    </linearGradient>
    <inkscape:path-effect
       is_visible="true"
       id="path-effect2852"
       effect="spiro" />
    <linearGradient
       id="linearGradient10390">
      <stop
         style="stop-color:#19029e;stop-opacity:1;"
         offset="0"
         id="stop10392" />
      <stop
         style="stop-color:#ffffff;stop-opacity:0.99230766;"
         offset="1"
         id="stop10394" />
    </linearGradient>
    <linearGradient
       id="linearGradient8756">
      <stop
         style="stop-color:#204a87;stop-opacity:1;"
         offset="0"
         id="stop8758" />
      <stop
         style="stop-color:#204a87;stop-opacity:0;"
         offset="1"
         id="stop8760" />
    </linearGradient>
    <inkscape:path-effect
       is_visible="true"
       id="path-effect8000"
       effect="spiro" />
    <inkscape:path-effect
       effect="spiro"
       id="path-effect3663"
       is_visible="true" />
    <linearGradient
       id="linearGradient3621">
      <stop
         style="stop-color:#39229a;stop-opacity:1;"
         offset="0"
         id="stop3623" />
      <stop
         style="stop-color:#f1f6fc;stop-opacity:0;"
         offset="1"
         id="stop3625" />
    </linearGradient>
    <inkscape:path-effect
       is_visible="true"
       id="path-effect2818"
       effect="spiro" />
    <inkscape:perspective
       id="perspective10"
       inkscape:persp3d-origin="372.04724 : 350.78739 : 1"
       inkscape:vp_z="744.09448 : 526.18109 : 1"
       inkscape:vp_y="0 : 1000 : 0"
       inkscape:vp_x="0 : 526.18109 : 1"
       sodipodi:type="inkscape:persp3d" />
    <linearGradient
       spreadMethod="pad"
       gradientUnits="userSpaceOnUse"
       y2="607.01343"
       x2="567.64282"
       y1="607.01343"
       x1="80.928574"
       id="linearGradient3619"
       xlink:href="#linearGradient3621"
       inkscape:collect="always" />
    <linearGradient
       gradientTransform="matrix(0.93543972,0,0,0.92315936,56.650263,50.924039)"
       y2="607.01343"
       x2="567.64282"
       y1="607.01343"
       x1="80.928574"
       spreadMethod="pad"
       gradientUnits="userSpaceOnUse"
       id="linearGradient3661"
       xlink:href="#linearGradient3621"
       inkscape:collect="always" />
    <linearGradient
       y2="607.01343"
       x2="567.64282"
       y1="607.01343"
       x1="80.928574"
       spreadMethod="pad"
       gradientTransform="matrix(0.93543972,0,0,0.92315936,263.79314,13.781182)"
       gradientUnits="userSpaceOnUse"
       id="linearGradient3887"
       xlink:href="#linearGradient3621"
       inkscape:collect="always" />
    <linearGradient
       gradientTransform="translate(120,-4.1349623e-8)"
       y2="607.01343"
       x2="567.64282"
       y1="607.01343"
       x1="80.928574"
       spreadMethod="pad"
       gradientUnits="userSpaceOnUse"
       id="linearGradient3889"
       xlink:href="#linearGradient3621"
       inkscape:collect="always" />
    <linearGradient
       y2="607.01343"
       x2="567.64282"
       y1="607.01343"
       x1="80.928574"
       spreadMethod="pad"
       gradientTransform="translate(1.6773139e-7,-31.428572)"
       gradientUnits="userSpaceOnUse"
       id="linearGradient4622"
       xlink:href="#linearGradient3621"
       inkscape:collect="always" />
    <linearGradient
       y2="607.01343"
       x2="567.64282"
       y1="607.01343"
       x1="80.928574"
       spreadMethod="pad"
       gradientTransform="matrix(0.93543972,0,0,0.92315936,143.79314,-17.64739)"
       gradientUnits="userSpaceOnUse"
       id="linearGradient4624"
       xlink:href="#linearGradient3621"
       inkscape:collect="always" />
    <filter
       id="filter8348"
       inkscape:label="Specular light"
       inkscape:menu="ABCs"
       inkscape:menu-tooltip="Basic specular bevel to use for building textures"
       color-interpolation-filters="sRGB">
      <feGaussianBlur
         id="feGaussianBlur8350"
         result="result0"
         in="SourceAlpha"
         stdDeviation="6" />
      <feSpecularLighting
         id="feSpecularLighting8352"
         specularExponent="25"
         specularConstant="1"
         surfaceScale="10"
         lighting-color="#ffffff"
         result="result1"
         in="result0">
        <feDistantLight
           id="feDistantLight8354"
           azimuth="235"
           elevation="45" />
      </feSpecularLighting>
      <feComposite
         id="feComposite8356"
         in2="result1"
         k3="1"
         k2="1"
         operator="arithmetic"
         result="result4"
         in="SourceGraphic"
         k1="0"
         k4="0" />
      <feComposite
         id="feComposite8358"
         in2="SourceAlpha"
         operator="in"
         result="result2"
         in="result4" />
    </filter>
    <linearGradient
       inkscape:collect="always"
       xlink:href="#linearGradient10390"
       id="linearGradient10396"
       x1="-28.258823"
       y1="737.33551"
       x2="703.92487"
       y2="737.33551"
       gradientUnits="userSpaceOnUse"
       gradientTransform="matrix(0.32921451,-0.01005662,0.00826082,0.34538916,-4.6670594,698.76315)" />
    <linearGradient
       inkscape:collect="always"
       xlink:href="#linearGradient10390"
       id="linearGradient2850"
       gradientUnits="userSpaceOnUse"
       x1="-28.258823"
       y1="737.33551"
       x2="703.92487"
       y2="737.33551"
       gradientTransform="matrix(0.32100416,0,0,0.42198476,-17.130401,611.68584)"
       spreadMethod="pad" />
    <linearGradient
       inkscape:collect="always"
       xlink:href="#linearGradient3977"
       id="linearGradient3983"
       x1="129.5"
       y1="253.85716"
       x2="130.49998"
       y2="1.0000153"
       gradientUnits="userSpaceOnUse" />
  </defs>
  <metadata
     id="metadata7">
    <rdf:RDF>
      <cc:Work
         rdf:about="">
        <dc:format>image/svg+xml</dc:format>
        <dc:type
           rdf:resource="http://purl.org/dc/dcmitype/StillImage" />
        <dc:title></dc:title>
      </cc:Work>
    </rdf:RDF>
  </metadata>
  <g
     id="layer1"
     inkscape:groupmode="layer"
     inkscape:label="Layer 1"
     transform="translate(26.830252,-797.09903)">
    <rect
       style="fill:url(#linearGradient3983);fill-rule:evenodd;stroke:#000000;stroke-width:1px;stroke-linecap:butt;stroke-linejoin:miter;stroke-opacity:1;fill-opacity:1"
       id="rect3207"
       width="257.14285"
       height="258.57144"
       x="1.4285715"
       y="1.7142857"
       transform="translate(-26.830252,797.09903)" />
    <path
       style="fill:url(#linearGradient10396);fill-opacity:1;stroke:#000000;stroke-width:2.06941533;stroke-linecap:butt;stroke-linejoin:miter;stroke-miterlimit:4;stroke-opacity:1;stroke-dasharray:none;stroke-dashoffset:0"
       d="m 162.75858,1056.4528 c 3.62188,-0.852 6.89908,-2.862 9.6499,-5.3674 2.75082,-2.5054 5.01136,-5.4996 7.09917,-8.5794 4.17561,-6.1596 7.88899,-12.9129 13.8864,-17.3182 3.29854,-2.4229 7.2558,-4.0387 11.34532,-4.202 4.04,-0.1614 8.12286,1.1297 11.33555,3.5846 3.21269,2.4548 5.53115,6.055 6.43692,9.9955 -1.98251,-2.7812 -5.31555,-4.55 -8.72997,-4.633 -3.41442,-0.083 -6.82948,1.5218 -8.94479,4.2033 -2.05322,2.6028 -2.84197,6.1269 -2.22925,9.385 0.61273,3.2581 2.58247,6.2137 5.27389,8.1493 2.69141,1.9356 6.06586,2.8598 9.3776,2.7089 3.31173,-0.151 6.54756,-1.3537 9.24145,-3.2859 4.7643,-3.4172 7.7592,-9.1767 7.82035,-15.0395 0.0611,-5.8627 -2.81298,-11.6835 -7.50497,-15.1993 -3.95567,-0.7212 -7.90083,-1.5 -11.8338,-2.3362 -9.83227,-2.0904 -19.72614,-4.5926 -28.48922,-9.5172 -11.99444,-6.7405 -21.15102,-17.63405 -28.49251,-29.27038 -4.84901,-7.68573 -9.04844,-15.84691 -11.64919,-24.55435 -2.60075,-8.70743 -3.56236,-18.00044 -1.94136,-26.94224 1.62099,-8.9418 5.93463,-17.50866 12.73731,-23.53417 6.80268,-6.02552 16.16504,-9.30989 25.16534,-8.05374 4.62744,0.64584 9.04522,2.43516 13.06751,4.81246 10.67161,6.30727 18.68527,16.96247 21.78426,28.96502 3.09899,12.00256 1.24537,25.20544 -5.03889,35.89062 15.46911,-13.75537 23.93109,-35.01755 22.14398,-55.64059 -1.7871,-20.62304 -13.78045,-40.11265 -31.38517,-51.00198 -10.2155,-6.31876 -22.03,-9.78529 -33.9677,-11.11745 -30.60675,-3.41549 -62.1057,7.32471 -85.703618,27.11301 -11.853085,9.93954 -21.818697,22.02245 -30.021648,35.13739 -6.131757,9.8035 -11.334238,20.24162 -18.527662,29.2949 -3.596713,4.52663 -7.693137,8.69368 -12.423276,12.01822 -4.730139,3.32454 -10.114937,5.79246 -15.8110045,6.78322 -4.3589288,0.75818 -8.8680703,0.64227 -13.182289,-0.33886 L 20.556821,1007.569 c -3.730895,-2.2961 -8.050192,-3.627 -12.426332,-3.8291 -4.3761404,-0.2021 -8.79971277,0.7252 -12.7263271,2.6676 -3.9266143,1.9425 -7.3478259,4.896 -9.8425999,8.497 -2.494774,3.6011 -4.057746,7.8419 -4.496566,12.2007 -0.438821,4.3588 0.247452,8.8261 1.974364,12.8522 1.726911,4.026 4.490747,7.6022 7.951372,10.2884 3.4606255,2.6861 7.6105984,4.4765 11.9391995,5.1508 4.328601,0.6743 8.8265205,0.231 12.9402185,-1.2753 4.916142,-1.8001 9.200067,-5.0627 12.774036,-8.8883 3.57397,-3.8257 6.485145,-8.216 9.24168,-12.6669 5.51307,-8.9018 10.778944,-18.4672 19.446931,-24.341 5.029951,-3.4085 11.028992,-5.3695 17.101035,-5.5902 6.072043,-0.2206 12.197582,1.2999 17.461633,4.3344 -3.733799,2.3239 -7.327427,4.8731 -10.754861,7.6289 -3.346384,2.6907 -6.550308,5.5953 -9.213569,8.9636 -2.66326,3.3682 -4.779651,7.2258 -5.761333,11.406 -0.981681,4.1802 -0.777248,8.6983 0.979778,12.6164 1.757026,3.918 5.14333,7.164 9.266265,8.3637 2.163871,0.6297 4.477614,0.6958 6.693749,0.2864 2.216135,-0.4093 4.335201,-1.2871 6.245999,-2.4819 3.821596,-2.3897 6.757907,-5.993 9.031,-9.8851 4.546187,-7.7841 6.702267,-16.9 12.069137,-24.1428 4.32254,-5.8334 10.61359,-10.147 17.56409,-12.2455 6.9505,-2.0985 14.52165,-1.9984 21.46791,0.1141 10.37409,3.155 19.26633,10.8829 23.83687,20.7158 -3.52056,-4.532 -9.32139,-7.194 -15.05298,-6.908 -5.7316,0.2861 -11.23856,3.5124 -14.29041,8.3724 -1.84636,2.9403 -2.81214,6.4271 -2.73358,9.8981 0.0786,3.4711 1.20226,6.9128 3.19359,9.7569 1.99134,2.8441 4.84328,5.0785 8.08414,6.3239 3.24085,1.2454 6.85766,1.4956 10.23732,0.7006"
       id="path3659"
       inkscape:path-effect="#path-effect3663"
       inkscape:original-d="m 162.75858,1056.4528 c 13.86668,2.9478 18.53454,-23.3839 30.63547,-31.265 3.40924,-2.2204 7.38375,-4.8058 11.34532,-4.202 7.26225,1.1064 28.63699,21.6427 17.77247,13.5801 0,0 -23.65888,-11.4321 -17.67476,-0.4297 5.8321,10.7232 47.98387,52.2283 21.66369,16.9573 -6.92585,-9.281 0.31538,-30.2388 0.31538,-30.2388 0,0 -7.28343,-2.3378 -11.8338,-2.3362 -65.98722,0.02 -15.66265,2.9549 -28.48922,-9.5172 -14.96264,-14.54903 -25.22535,-15.73678 -28.49251,-29.27038 -6.76563,-28.02533 -0.3308,-69.98563 24.3121,-83.0845 4.12993,-2.19526 -3.83799,-18.59107 13.06751,4.81246 5.92915,8.68852 15.57364,89.907 16.74537,64.85564 15.75823,-2.80557 10.9558,-79.16982 -9.24119,-106.64257 -7.53301,-10.24669 -25.37486,-11.37299 -33.9677,-11.11745 -39.50813,0.0455 -59.07157,0.43944 -85.703618,27.11301 -20.350101,20.29957 -19.178866,39.8103 -30.021648,35.13739 -188.131204,-81.07876 -35.732918,47.10003 -46.7619425,48.09634 -11.0290274,0.9963 -13.182289,-0.33886 -13.182289,-0.33886 0,0 20.9928615,13.67686 27.3096085,49.00662 11.315062,-6.6999 -13.1097884,51.0657 -4.686671,46.5523 33.117856,-17.7459 25.251463,-43.7089 41.462647,-45.8962 537.289593,-72.49556 29.080945,-0.046 34.562668,-1.2558 3.841803,0.1251 -11.431133,2.7522 -10.754861,7.6289 0.676269,4.8767 -9.550575,41.2745 -4.728859,41.3497 6.877818,0.1074 -330.346075,-36.5231 34.039885,-36.2234 65.74637,0.054 20.89133,-4.7771 39.032,-12.1314 18.14065,-7.354 20.14097,25.682 23.83687,20.7158 31.09279,6.2553 -18.23099,4.3268 -29.34339,1.4644 -15.99141,-4.119 9.98776,24.8102 18.78147,26.6795 z"
       sodipodi:nodetypes="saacsscssaaccaccssccsscsssscss"
       inkscape:connector-curvature="0" />
    <path
       sodipodi:nodetypes="saacsscssaaccaccssccascsssscss"
       inkscape:original-d="m 137.66488,1054.6223 c 13.44231,4.1158 18.60407,-27.8577 30.57825,-37.0284 3.37354,-2.5837 7.30635,-5.5915 11.15222,-4.7069 7.0502,1.6216 27.39806,27.4913 17.00013,17.2423 0,0 -22.7856,-14.8396 -17.21138,-1.1834 5.43262,13.3091 45.53591,65.5535 20.71282,21.5106 -6.53193,-11.5894 1.01198,-36.9061 1.01198,-36.9061 0,0 -7.04211,-3.1254 -11.4758,-3.2933 -64.29501,-2.4353 -15.32975,3.0232 -27.53668,-12.68042 -14.23977,-18.32059 -24.21155,-20.15342 -27.07954,-36.79805 -5.93893,-34.46775 1.30863,-85.45602 25.62469,-100.52902 4.07515,-2.52609 -3.3063,-22.84051 12.62015,6.36278 5.57459,10.82868 13.07897,110.34589 14.80447,79.80504 15.41938,-2.83755 33.0332,-83.0139 16.54214,-117.94032 -9.99979,-21.17857 -48.94175,-28.62947 -57.32015,-28.63795 -38.49569,-1.41778 -56.144801,-0.46985 -82.715237,31.10197 -20.30113,24.0243 -24.136404,34.23651 -34.592144,28.12711 -181.416129,-106.0032 -67.798939,-14.98475 -42.161511,40.17365 5.125526,11.02744 -13.28842,12.74627 -13.28842,12.74627 0,0 -4.291727,83.96226 1.039668,127.32924 3.065783,1.3041 18.9319456,-14.2911 28.4684648,-21.3468 11.4292362,-8.456 18.6090462,-23.08569 34.4553692,-25.15161 525.19677,-68.46986 26.808539,13.61291 32.177837,12.34051 3.740338,0.2957 -11.901496,-10.65783 -11.356207,-4.6792 0.545269,5.9786 -6.292607,43.8743 -1.59634,44.1461 6.698894,0.3876 -324.99618,-50.74938 30.036016,-36.795 64.058554,2.5178 20.466734,-5.0525 38.313454,-13.35403 17.84666,-8.30199 19.02579,32.10363 22.74261,26.17853 30.14946,8.7968 -17.86416,4.6027 -28.62475,0.6937 -15.48522,-5.6255 9.15335,30.6624 17.67789,33.2727 z"
       inkscape:path-effect="#path-effect2852"
       id="path2848"
       d="m 137.66488,1054.6223 c 3.91951,-1.1687 7.351,-3.6639 10.11794,-6.676 2.76693,-3.012 4.91632,-6.5355 6.86689,-10.1304 3.90113,-7.1899 7.27943,-15.0213 13.59342,-20.222 3.16616,-2.6079 7.05835,-4.4504 11.15222,-4.7069 4.56384,-0.286 9.2176,1.492 12.4281,4.7483 3.21051,3.2562 4.92252,7.9347 4.57203,12.494 -2.03189,-2.5048 -5.13055,-4.114 -8.3483,-4.3352 -3.21775,-0.2212 -6.50748,0.9486 -8.86308,3.1518 -2.62643,2.4565 -4.02352,6.1251 -3.85802,9.7175 0.16549,3.5924 1.84714,7.0613 4.45345,9.5392 2.6063,2.4778 6.09298,3.9702 9.67268,4.314 3.5797,0.3438 7.23591,-0.4365 10.44471,-2.0601 3.35509,-1.6976 6.23869,-4.3156 8.25158,-7.4916 2.01289,-3.176 3.14955,-6.9012 3.25262,-10.6599 0.10306,-3.7587 -0.82775,-7.5406 -2.66358,-10.8221 -1.83582,-3.2815 -4.57162,-6.0536 -7.82864,-7.9325 -3.84726,-1.0191 -7.6736,-2.1172 -11.4758,-3.2933 -9.70292,-3.0013 -19.40553,-6.5944 -27.53668,-12.68042 -12.29865,-9.20524 -19.89979,-23.21702 -27.07954,-36.79805 -5.17232,-9.78384 -10.34217,-19.6226 -14.01253,-30.06314 -3.67035,-10.44055 -5.81242,-21.58109 -4.73093,-32.59503 1.08149,-11.01393 5.59903,-21.9096 13.70177,-29.44765 4.05136,-3.76902 8.95152,-6.65244 14.27004,-8.17967 5.31852,-1.52723 11.05168,-1.67661 16.39634,-0.24353 4.57633,1.22706 8.79061,3.57296 12.62015,6.36278 12.05505,8.7821 20.56798,22.29097 23.28837,36.95552 2.72039,14.66454 -0.38085,30.32794 -8.4839,42.84952 18.53158,-12.53073 31.38821,-33.13833 34.49545,-55.29197 3.10723,-22.15364 -3.58405,-45.503 -17.95331,-62.64835 -14.11025,-16.83631 -35.3854,-27.44326 -57.32015,-28.63795 -15.00347,-0.81718 -30.03744,2.59223 -43.90478,8.37745 -13.867331,5.78523 -26.651668,13.89641 -38.810457,22.72452 -12.031115,8.73541 -23.517994,18.20651 -34.592144,28.12711 -14.460006,12.95377 -28.2140415,26.66958 -42.161511,40.17365 -4.409597,4.26941 -8.839135,8.51823 -13.28842,12.74627 l 1.039668,127.32924 c 10.297618,-5.9429 19.8782568,-13.1269 28.4684648,-21.3468 5.2113603,-4.9867 10.0659152,-10.3583 15.5844292,-15.0028 5.518513,-4.64458 11.827505,-8.59452 18.87094,-10.14881 5.940173,-1.31083 12.261911,-0.83892 17.941634,1.33931 5.679722,2.17822 10.695851,6.0545 14.236203,11.0012 -3.336774,-2.4403 -7.268847,-4.0605 -11.356207,-4.6792 -6.627073,-1.00313 -13.656855,0.7255 -18.961941,4.8219 -5.305086,4.0964 -8.774145,10.5344 -9.112189,17.2284 -0.338044,6.694 2.514777,13.5128 7.626442,17.8481 2.555833,2.1677 5.633807,3.7194 8.90148,4.4633 3.267673,0.7439 6.719537,0.6766 9.949868,-0.2156 3.913875,-1.081 7.437749,-3.3422 10.371161,-6.1497 2.933411,-2.8075 5.306221,-6.1524 7.384963,-9.6404 4.157484,-6.9759 7.236476,-14.64 12.279892,-21.0049 4.456069,-5.6237 10.415221,-10.09063 17.160394,-12.53702 6.74517,-2.44638 14.26538,-2.82747 21.15306,-0.81701 5.86204,1.71109 11.21198,5.13842 15.2169,9.74843 4.00493,4.6099 6.65081,10.3864 7.52571,16.4301 -3.93935,-3.4617 -9.20523,-5.3742 -14.44794,-5.2471 -5.24271,0.127 -10.40977,2.2923 -14.17681,5.9408 -3.09056,2.9933 -5.23433,6.9614 -5.98973,11.1971 -0.7554,4.2356 -0.10947,8.7176 1.86002,12.5429 1.96949,3.8252 5.25873,6.9649 9.19374,8.7048 3.93501,1.7399 8.49075,2.0573 12.61386,0.8279"
       style="fill:url(#linearGradient2850);fill-opacity:1;stroke:#000000;stroke-width:2.2578702;stroke-linecap:butt;stroke-linejoin:miter;stroke-miterlimit:4;stroke-opacity:1;stroke-dasharray:none;stroke-dashoffset:0"
       inkscape:connector-curvature="0" />
  </g>
</svg>
