/* XPM */
static char * gnonograms3_32_xpm[] = {
"32 32 792 2",
"  	c None",
". 	c #F0F6F6",
"+ 	c #F4F9FA",
"@ 	c #F7FDFB",
"# 	c #F9FFFC",
"$ 	c #E9ECF2",
"% 	c #E0E2EE",
"& 	c #E3E5EF",
"* 	c #EDF0F4",
"= 	c #F5FAFA",
"- 	c #F5F9FA",
"; 	c #EFF7F8",
"> 	c #F3FBFC",
", 	c #F3FCFC",
"' 	c #F6FEFD",
") 	c #D1D2EA",
"! 	c #BCB6E4",
"~ 	c #C1B8E7",
"{ 	c #D3CCEF",
"] 	c #DCD7F2",
"^ 	c #D6D0EE",
"/ 	c #D1CCE9",
"( 	c #E2E3F2",
"_ 	c #F0F7F9",
": 	c #F4FBFC",
"< 	c #EAF6F6",
"[ 	c #EDF9FA",
"} 	c #EEF9FA",
"| 	c #F0FCFA",
"1 	c #BCBDE2",
"2 	c #B5ACE3",
"3 	c #E9E6FA",
"4 	c #FFFFFF",
"5 	c #F2EFFE",
"6 	c #ECE8FE",
"7 	c #EFEAFF",
"8 	c #F3EFFF",
"9 	c #FAF8FF",
"0 	c #FEFCFF",
"a 	c #EDEAF8",
"b 	c #E1DEF3",
"c 	c #E9EEF5",
"d 	c #EEFAFA",
"e 	c #E5F3F4",
"f 	c #E8F6F8",
"g 	c #E8F7F8",
"h 	c #ECFBFA",
"i 	c #C7CEE6",
"j 	c #A9A0E0",
"k 	c #F2EEFD",
"l 	c #EFECFE",
"m 	c #CEC6F9",
"n 	c #C3B9F7",
"o 	c #C8BFF8",
"p 	c #D1CAFB",
"q 	c #D5CEFD",
"r 	c #DFD7FE",
"s 	c #EBE4FE",
"t 	c #F4EFFF",
"u 	c #FDFCFF",
"v 	c #FAF9FE",
"w 	c #EDE9F8",
"x 	c #EBEFF5",
"y 	c #E8F7F7",
"z 	c #E9F7F8",
"A 	c #E0F0F2",
"B 	c #E3F4F6",
"C 	c #E4F5F5",
"D 	c #9D99D7",
"E 	c #D5CEF3",
"F 	c #F1ECFE",
"G 	c #BBB0F3",
"H 	c #B1A6EF",
"I 	c #B7ADF0",
"J 	c #BBB2EF",
"K 	c #C6BCF6",
"L 	c #D2CAFC",
"M 	c #D7D0FD",
"N 	c #E0D9FE",
"O 	c #E9E2FF",
"P 	c #F2ECFF",
"Q 	c #FDF8FF",
"R 	c #FFFEFE",
"S 	c #FCFBFE",
"T 	c #F5F3FC",
"U 	c #E7E4F2",
"V 	c #E3EEF3",
"W 	c #E4F4F6",
"X 	c #DBEFF0",
"Y 	c #DEF2F4",
"Z 	c #DFF3F4",
"` 	c #CBDAE9",
" .	c #978CD9",
"..	c #F5F1FF",
"+.	c #C4B9F7",
"@.	c #A195E7",
"#.	c #A89CE9",
"$.	c #AC9FE8",
"%.	c #B8AEEF",
"&.	c #BEB5F1",
"*.	c #C5BBF4",
"=.	c #C9C1F4",
"-.	c #C7C0EE",
";.	c #CBC4EE",
">.	c #D3CDF0",
",.	c #E3DEFA",
"'.	c #F9F4FF",
").	c #FEFCFE",
"!.	c #FAF8FD",
"~.	c #F8F6FC",
"{.	c #ECE8F8",
"].	c #E5EDF3",
"^.	c #DFF2F4",
"/.	c #D6EBEE",
"(.	c #D9EFF2",
"_.	c #D9F0F2",
":.	c #DDF4F4",
"<.	c #ABB5DB",
"[.	c #ACA1E5",
"}.	c #EDE7FF",
"|.	c #9C90E8",
"1.	c #988CE1",
"2.	c #9A8DE0",
"3.	c #A599E5",
"4.	c #AEA2EA",
"5.	c #B7ACEF",
"6.	c #B9AEED",
"7.	c #BCB3ED",
"8.	c #B2AADD",
"9.	c #B8B0E0",
"0.	c #C0B8E2",
"a.	c #C8C1E5",
"b.	c #D2CDEA",
"c.	c #E1DCF4",
"d.	c #FBF9FF",
"e.	c #FFFFFE",
"f.	c #FEFDFE",
"g.	c #FCFAFF",
"h.	c #F9F9FC",
"i.	c #F4F1FA",
"j.	c #E3EFF3",
"k.	c #DAF0F3",
"l.	c #D1E9EC",
"m.	c #D4EDF0",
"n.	c #DAF4F3",
"o.	c #8F92D0",
"p.	c #C9C0F1",
"q.	c #D0C6FA",
"r.	c #8A7BDD",
"s.	c #8E81DC",
"t.	c #9285DD",
"u.	c #9E91E2",
"v.	c #A499E6",
"w.	c #ABA0E8",
"x.	c #B4A9EC",
"y.	c #B6ABE9",
"z.	c #A99FD9",
"A.	c #AFA7DA",
"B.	c #BEB6E9",
"C.	c #CDC5F8",
"D.	c #D2CAF9",
"E.	c #D0C9F1",
"F.	c #D8D2ED",
"G.	c #E8E4F7",
"H.	c #FBFBFD",
"I.	c #FAFAFE",
"J.	c #FAF8FC",
"K.	c #D4ECF0",
"L.	c #D5EDF1",
"M.	c #CCE7EB",
"N.	c #CFEBEF",
"O.	c #D3F1F1",
"P.	c #7A76C9",
"Q.	c #DCD5F9",
"R.	c #AFA2F1",
"S.	c #7E6FD5",
"T.	c #8273D5",
"U.	c #8E80DB",
"V.	c #9487DE",
"W.	c #9C8EE1",
"X.	c #A397E5",
"Y.	c #ACA0E9",
"Z.	c #B4A9EB",
"`.	c #A89CDB",
" +	c #A89ED9",
".+	c #B6ACE6",
"++	c #C2B8F1",
"@+	c #C0B7EB",
"#+	c #B8B1E1",
"$+	c #BEB5E2",
"%+	c #C4BDE4",
"&+	c #DCD8EE",
"*+	c #F6F4FC",
"=+	c #FDFBFE",
"-+	c #FBF9FC",
";+	c #FEFFFF",
">+	c #FBF9FE",
",+	c #E3F0F4",
"'+	c #D0EBEF",
")+	c #C7E4E9",
"!+	c #CAE8ED",
"~+	c #CBEAED",
"{+	c #6E65C5",
"]+	c #E3DBFE",
"^+	c #9485E8",
"/+	c #7567D1",
"(+	c #7C6BD3",
"_+	c #8576D6",
":+	c #8C7EDB",
"<+	c #9185DD",
"[+	c #B2A7E9",
"}+	c #A095D4",
"|+	c #A99FDB",
"1+	c #BBB1ED",
"2+	c #B6ADE5",
"3+	c #B1A9DC",
"4+	c #B8B1DF",
"5+	c #CAC3ED",
"6+	c #D9D3F3",
"7+	c #DDD7F3",
"8+	c #EDE9F7",
"9+	c #FDFBFF",
"0+	c #FBFAFC",
"a+	c #FCFCFE",
"b+	c #F3F5F9",
"c+	c #C9E8ED",
"d+	c #C1E2E7",
"e+	c #BFDFE6",
"f+	c #685DC5",
"g+	c #E5DDFF",
"h+	c #7F6EDD",
"i+	c #6C5CCC",
"j+	c #7363CE",
"k+	c #7C6DD1",
"l+	c #8172D4",
"m+	c #8B7DDA",
"n+	c #9284DD",
"o+	c #9B8EE1",
"p+	c #ADA1E4",
"q+	c #9F94D4",
"r+	c #AEA4E1",
"s+	c #B3AAE7",
"t+	c #A89DD8",
"u+	c #B0A7DC",
"v+	c #C6BDF5",
"w+	c #CFC8FA",
"x+	c #D3CDFB",
"y+	c #DBD3FE",
"z+	c #E5E0F8",
"A+	c #FDFDFF",
"B+	c #FCFAFE",
"C+	c #FBFAFD",
"D+	c #FEFDFF",
"E+	c #FDF9FD",
"F+	c #C1E5E9",
"G+	c #AAC7DA",
"H+	c #685CC8",
"I+	c #DAD0FF",
"J+	c #6E5CD7",
"K+	c #6251C7",
"L+	c #6B5BCA",
"M+	c #7566D0",
"N+	c #7868D0",
"O+	c #8071D4",
"P+	c #AB9FE3",
"Q+	c #9E94D4",
"R+	c #B0A6E5",
"S+	c #A69BDA",
"T+	c #A79CD8",
"U+	c #BDB5EF",
"V+	c #C7BEF7",
"W+	c #CEC7F9",
"X+	c #D2CCFA",
"Y+	c #D8D1FC",
"Z+	c #DED9F7",
"`+	c #FDFAFF",
" @	c #F0EDF8",
".@	c #FEFEFE",
"+@	c #FFFBFF",
"@@	c #BFE2E7",
"#@	c #2917A4",
"$@	c #D0C2FF",
"%@	c #5E4ECD",
"&@	c #5A47C3",
"*@	c #6553C7",
"=@	c #6959CA",
"-@	c #7262CE",
";@	c #8B7DD9",
">@	c #ABA0E9",
",@	c #ADA3E2",
"'@	c #A095D5",
")@	c #ABA2DE",
"!@	c #C0B8F3",
"~@	c #C7BEF6",
"{@	c #CAC3F6",
"]@	c #C4BEEB",
"^@	c #BFB8E3",
"/@	c #C8C2E5",
"(@	c #F9F6FD",
"_@	c #F7F5FC",
":@	c #E5E1F3",
"<@	c #FDFAFE",
"[@	c #CCE2E8",
"}@	c #2C1BA3",
"|@	c #5E4CD1",
"1@	c #5341C0",
"2@	c #5D4BC3",
"3@	c #614FC6",
"4@	c #6757C8",
"5@	c #9185DC",
"6@	c #AFA3E6",
"7@	c #A69CDA",
"8@	c #9F94D5",
"9@	c #AFA7E4",
"0@	c #BDB5F1",
"a@	c #C1B8F0",
"b@	c #B6AFE1",
"c@	c #B6B0DF",
"d@	c #B8B5DD",
"e@	c #C1CCE2",
"f@	c #F7F4FD",
"g@	c #D4DDEA",
"h@	c #DCD8EC",
"i@	c #F8F6FD",
"j@	c #FDFCFE",
"k@	c #F8F6FB",
"l@	c #E5EBF3",
"m@	c #27149F",
"n@	c #5743C9",
"o@	c #5442BE",
"p@	c #5846C1",
"q@	c #5F4DC5",
"r@	c #6756C8",
"s@	c #B3A8EB",
"t@	c #A195D5",
"u@	c #A499D7",
"v@	c #B2A9E8",
"w@	c #BAB1ED",
"x@	c #B2AAE2",
"y@	c #AEA7DB",
"z@	c #ACB9D8",
"A@	c #B0DEE4",
"B@	c #CAE2EB",
"C@	c #DDE8F1",
"D@	c #AEDCE4",
"E@	c #B6DBE2",
"F@	c #F5F3F9",
"G@	c #F4F3FA",
"H@	c #220D9D",
"I@	c #5844C9",
"J@	c #4E3CBC",
"K@	c #5845C0",
"L@	c #604EC5",
"M@	c #A99DDC",
"N@	c #A69DD8",
"O@	c #B1A9E6",
"P@	c #B7ADE9",
"Q@	c #A7A0D8",
"R@	c #A9ABD6",
"S@	c #ABDDE3",
"T@	c #AADAE2",
"U@	c #C4DBE6",
"V@	c #A8DAE1",
"W@	c #ABDAE2",
"X@	c #AFD9E1",
"Y@	c #F7F3FC",
"Z@	c #FBF8FD",
"`@	c #F0EDF9",
" #	c #5541C7",
".#	c #5845C1",
"+#	c #7868CF",
"@#	c #B5AAED",
"##	c #A79DD8",
"$#	c #A59AD6",
"%#	c #ACA3DF",
"&#	c #AFA6E2",
"*#	c #A79FD9",
"=#	c #A3C6D8",
"-#	c #A7D8E0",
";#	c #A6D8E0",
">#	c #B4D9E2",
",#	c #F7F2FC",
"'#	c #CDDEE7",
")#	c #F0ECF9",
"!#	c #F4F3FC",
"~#	c #220D9C",
"{#	c #4E3CBB",
"]#	c #5F4DC4",
"^#	c #6554C6",
"/#	c #7060CC",
"(#	c #7766CE",
"_#	c #7F70D2",
":#	c #8A7BD8",
"<#	c #B6ABEE",
"[#	c #BCB1EF",
"}#	c #AFA5E0",
"|#	c #ADA5D9",
"1#	c #A9A0DD",
"2#	c #A59BD5",
"3#	c #A0D7DD",
"4#	c #A1D5DE",
"5#	c #C9DFEA",
"6#	c #CAE0EA",
"7#	c #9BD4DD",
"8#	c #E3E4F1",
"9#	c #EDEEF6",
"0#	c #5542BE",
"a#	c #5644BB",
"b#	c #5644B8",
"c#	c #5949B7",
"d#	c #6151BB",
"e#	c #6E5FC3",
"f#	c #8274D0",
"g#	c #8F82DB",
"h#	c #A498E5",
"i#	c #AB9FE7",
"j#	c #BBB0EE",
"k#	c #C1B7F1",
"l#	c #AFA8DB",
"m#	c #AEA5D9",
"n#	c #A49BD6",
"o#	c #A19CD4",
"p#	c #9CD7DD",
"q#	c #9DD4DC",
"r#	c #9BD4DC",
"s#	c #AFD5DF",
"t#	c #D6E0EC",
"u#	c #D4E3EC",
"v#	c #230D9D",
"w#	c #523EC4",
"x#	c #4A37B8",
"y#	c #4634B0",
"z#	c #422FAB",
"A#	c #4936AD",
"B#	c #5342B1",
"C#	c #5E4DB8",
"D#	c #6152B8",
"E#	c #6C5DBD",
"F#	c #8476CF",
"G#	c #9A8CE0",
"H#	c #9F92E0",
"I#	c #9E93DB",
"J#	c #9F94D8",
"K#	c #A49AD9",
"L#	c #AFA5DF",
"M#	c #B8AFE3",
"N#	c #B7AFDF",
"O#	c #A9A1D6",
"P#	c #A398D5",
"Q#	c #94D3D9",
"R#	c #96D2DB",
"S#	c #94D1DA",
"T#	c #DAE1ED",
"U#	c #A2D1DA",
"V#	c #4F3CC1",
"W#	c #3927A8",
"X#	c #3825A6",
"Y#	c #4432AD",
"Z#	c #5E4EBF",
"`#	c #6A5AC9",
" $	c #7767CE",
".$	c #7364C4",
"+$	c #7466C0",
"@$	c #9387DA",
"#$	c #897CCC",
"$$	c #8E82CC",
"%$	c #958ACF",
"&$	c #9F95D5",
"*$	c #AFA7DB",
"=$	c #BDB6E4",
"-$	c #BEB6E1",
";$	c #A89FD7",
">$	c #93C1D3",
",$	c #92CFD8",
"'$	c #92CFD9",
")$	c #8FCED7",
"!$	c #BAD2DD",
"~$	c #91CFD9",
"{$	c #220E9D",
"]$	c #3F2CB3",
"^$	c #301BA2",
"/$	c #3D2AA9",
"($	c #5C49C1",
"_$	c #5746BB",
":$	c #5644B6",
"<$	c #5848B7",
"[$	c #5E4FB6",
"}$	c #8577CF",
"|$	c #7E71C8",
"1$	c #8578CD",
"2$	c #8578C9",
"3$	c #9387D3",
"4$	c #A699E4",
"5$	c #AEA2E9",
"6$	c #B8ADEE",
"7$	c #B7ADE8",
"8$	c #DAD3F4",
"9$	c #C5BFE4",
"0$	c #A8B8D6",
"a$	c #88CDD5",
"b$	c #8CCDD6",
"c$	c #8DCDD6",
"d$	c #8DCDD7",
"e$	c #90CBD5",
"f$	c #8BCDD6",
"g$	c #200C9A",
"h$	c #2B16A1",
"i$	c #331FA3",
"j$	c #4C3AB7",
"k$	c #4230AC",
"l$	c #4432AC",
"m$	c #4B39AD",
"n$	c #5647B3",
"o$	c #A699E1",
"p$	c #B1A3F1",
"q$	c #DFD8F6",
"r$	c #776BC2",
"s$	c #8A7DCE",
"t$	c #9F91E2",
"u$	c #A093DF",
"v$	c #9E94DA",
"w$	c #A096D9",
"x$	c #A398D8",
"y$	c #A89EDA",
"z$	c #DDD7F4",
"A$	c #D6D0F0",
"B$	c #D3CCEB",
"C$	c #D0D2E8",
"D$	c #CAE4EB",
"E$	c #9FD2DC",
"F$	c #83C8D3",
"G$	c #88CAD5",
"H$	c #87CAD5",
"I$	c #87CAD4",
"J$	c #1C0797",
"K$	c #29149F",
"L$	c #4232AF",
"M$	c #3422A3",
"N$	c #3B28A7",
"O$	c #4C3BB1",
"P$	c #6052C4",
"Q$	c #6B5BC5",
"R$	c #CFC3F9",
"S$	c #9386E0",
"T$	c #7365C2",
"U$	c #796BC2",
"V$	c #8275CB",
"W$	c #9588D9",
"X$	c #897DCA",
"Y$	c #9184CD",
"Z$	c #9C92D3",
"`$	c #C4BBEA",
" %	c #F5F3FE",
".%	c #E5E1F5",
"+%	c #C7C0E5",
"@%	c #C9C2E6",
"#%	c #A9B3D6",
"$%	c #79C6D0",
"%%	c #E2F1F5",
"&%	c #E2E9F2",
"*%	c #7EC7D1",
"=%	c #83C9D3",
"-%	c #1A0595",
";%	c #4635B8",
">%	c #3325A3",
",%	c #3322A3",
"'%	c #3829A5",
")%	c #594AC1",
"!%	c #6153C6",
"~%	c #5949B4",
"{%	c #6B5BC0",
"]%	c #6A5CBB",
"^%	c #7263C0",
"/%	c #756AC0",
"(%	c #8D81D5",
"_%	c #8275C7",
":%	c #887CC9",
"<%	c #968AD6",
"[%	c #C7BFE9",
"}%	c #EDE9FC",
"|%	c #C5BDE7",
"1%	c #C3BBE1",
"2%	c #C9C1EC",
"3%	c #D4CCEC",
"4%	c #E3E8F3",
"5%	c #E0F1F4",
"6%	c #F9F5FD",
"7%	c #98CFD8",
"8%	c #7EC6D1",
"9%	c #201099",
"0%	c #3223A6",
"a%	c #3024A2",
"b%	c #669DC0",
"c%	c #4343AC",
"d%	c #6253CA",
"e%	c #6153C5",
"f%	c #584AB6",
"g%	c #6051B5",
"h%	c #6A5CBA",
"i%	c #9F92DA",
"j%	c #DFD5FF",
"k%	c #A297DB",
"l%	c #7E70C3",
"m%	c #8D82D3",
"n%	c #9A8FDC",
"o%	c #ACA2DB",
"p%	c #C1B8EC",
"q%	c #C0B9E3",
"r%	c #A39CD5",
"s%	c #B6AEDE",
"t%	c #E4E0F7",
"u%	c #F3F1FB",
"v%	c #F6F3FB",
"w%	c #C6E0E8",
"x%	c #8ACAD4",
"y%	c #71C1CC",
"z%	c #78C4CF",
"A%	c #78C4CE",
"B%	c #21129A",
"C%	c #22109A",
"D%	c #3625AC",
"E%	c #5E4ACC",
"F%	c #E3E8F9",
"G%	c #9484F2",
"H%	c #5446B8",
"I%	c #493DAD",
"J%	c #5B4AB6",
"K%	c #E1D8FF",
"L%	c #A69AEB",
"M%	c #887ED6",
"N%	c #756AC1",
"O%	c #726FBD",
"P%	c #847ACD",
"Q%	c #847ACA",
"R%	c #9A91D0",
"S%	c #AFA5DA",
"T%	c #B6AFDE",
"U%	c #CEC8EF",
"V%	c #DFE3EF",
"W%	c #E3DEF4",
"X%	c #DFDBEF",
"Y%	c #EBE7F6",
"Z%	c #DCDAEC",
"`%	c #95C0D2",
" &	c #E7F4F6",
".&	c #E7ECF4",
"+&	c #74C1CC",
"@&	c #73C1CD",
"#&	c #1B0997",
"$&	c #7564CC",
"%&	c #B9ABFA",
"&&	c #8777E9",
"*&	c #8B7CEB",
"=&	c #6353CB",
"-&	c #4236AA",
";&	c #4945AC",
">&	c #594EB4",
",&	c #7266C8",
"'&	c #7066C1",
")&	c #7063BE",
"!&	c #7E72CB",
"~&	c #CDEBEE",
"{&	c #9F9CE0",
"]&	c #7F74C5",
"^&	c #7492C1",
"/&	c #7AB5CC",
"(&	c #AEA4DC",
"_&	c #E9E6F9",
":&	c #C3BDE5",
"<&	c #C0C6E3",
"[&	c #FAF7FC",
"}&	c #DED8F5",
"|&	c #E6E2F5",
"1&	c #EAE8F3",
"2&	c #D1E7EC",
"3&	c #8EC7D3",
"4&	c #6EBBC8",
"5&	c #170691",
"6&	c #6A58DC",
"7&	c #4635BB",
"8&	c #4B3BBA",
"9&	c #4F3FB9",
"0&	c #3F30A9",
"a&	c #4031A9",
"b&	c #4F80AF",
"c&	c #5567B1",
"d&	c #6154B8",
"e&	c #6759BA",
"f&	c #8D82CA",
"g&	c #D3CAFC",
"h&	c #C7BDF4",
"i&	c #7F75C8",
"j&	c #6E78BA",
"k&	c #5498B6",
"l&	c #5C93B6",
"m&	c #D3CCF5",
"n&	c #C3BCED",
"o&	c #BCB4E1",
"p&	c #CDC8E7",
"q&	c #E8E7F9",
"r&	c #CEC8E7",
"s&	c #F7F6FD",
"t&	c #B3CCDC",
"u&	c #DAE4EE",
"v&	c #E8E8F3",
"w&	c #190B93",
"x&	c #2F1CA6",
"y&	c #402FB4",
"z&	c #4534B3",
"A&	c #3929A6",
"B&	c #3828A6",
"C&	c #39449D",
"D&	c #39669D",
"E&	c #39679C",
"F&	c #425A9F",
"G&	c #685ABF",
"H&	c #AD9FF0",
"I&	c #8073D1",
"J&	c #6F64BD",
"K&	c #746ABF",
"L&	c #3A659C",
"M&	c #3A669D",
"N&	c #35659B",
"O&	c #9693CD",
"P&	c #A9A3D8",
"Q&	c #B2ACDC",
"R&	c #C0B8E3",
"S&	c #E8E4FA",
"T&	c #DFDAF9",
"U&	c #BEB8E4",
"V&	c #C4C0E1",
"W&	c #EBE8F7",
"X&	c #F0EEF7",
"Y&	c #FBF9FD",
"Z&	c #EFF0F5",
"`&	c #F1EFF9",
" *	c #191E84",
".*	c #1A0798",
"+*	c #23119B",
"@*	c #29189C",
"#*	c #2F1FA1",
"$*	c #2D2696",
"%*	c #1E3883",
"&*	c #1E3785",
"**	c #1E3885",
"=*	c #213786",
"-*	c #594AB3",
";*	c #6255B8",
">*	c #6559B8",
",*	c #354392",
"'*	c #1F3986",
")*	c #1F3985",
"!*	c #203986",
"~*	c #223B87",
"{*	c #646AAC",
"]*	c #8283BE",
"^*	c #AAA2D9",
"/*	c #B4ADE0",
"(*	c #B5AEDD",
"_*	c #384D91",
":*	c #475B9B",
"<*	c #6776AC",
"[*	c #8F96C1",
"}*	c #E8E6F5",
"|*	c #EBE9F6",
"1*	c #EFEDF7",
"2*	c #040B6C",
"3*	c #090577",
"4*	c #251794",
"5*	c #241693",
"6*	c #130E7F",
"7*	c #030A6C",
"8*	c #040A6E",
"9*	c #030A6E",
"0*	c #211E83",
"a*	c #766ABE",
"b*	c #5A4FAF",
"c*	c #212181",
"d*	c #030B6D",
"e*	c #050C6E",
"f*	c #050C6F",
"g*	c #030A6D",
"h*	c #7E78B8",
"i*	c #C0BBE1",
"j*	c #A29CD0",
"k*	c #2D2F85",
"l*	c #050B6E",
"m*	c #060D6F",
"n*	c #131975",
"o*	c #B5B3D5",
"p*	c #CCCAE2",
"q*	c #4E5197",
". + + + + + + + + + + + + + + @ # $ % & * @ = - - - - = = = = = ",
"; > > > > > > > > > > > , ' ) ! ~ { ] ] ^ / ( _ : : : > > > > > ",
"< [ [ [ [ [ [ } } } } | 1 2 3 4 5 6 7 8 9 0 a b c d } } } } } } ",
"e f f f f f f g f h i j k l m n o p q r s t u v w x y z z z z z ",
"A B B B B B B B C D E F G H I J K L M N O P Q R S T U V W W W W ",
"X Y Y Y Y Y Z `  ...+.@.#.$.%.&.*.=.-.;.>.,.'.).4 !.~.{.].^.^.^.",
"/.(.(.(._.:.<.[.}.|.1.2.3.4.5.6.7.8.9.0.a.b.c.d.e.f.g.h.i.j.k.k.",
"l.m.m.m.n.o.p.q.r.s.t.u.v.w.x.y.z.A.B.C.D.E.F.G.4 4 g.H.I.J.K.L.",
"M.N.N.O.P.Q.R.S.T.U.V.W.X.Y.Z.`. +.+++@+#+$+%+&+*+e.=+-+;+>+,+'+",
")+!+~+{+]+^+/+(+_+:+<+W.X.Y.[+}+|+1+2+3+4+5+6+7+8+4 9+0+4 a+b+c+",
"d+e+f+g+h+i+j+k+l+m+n+o+X.Y.p+q+r+s+t+u+v+w+x+y+z+A+B+C+4 D+E+F+",
"G+H+I+J+K+L+M+N+O+m+t.o+X.Y.P+Q+R+S+T+U+V+W+X+Y+Z+>+`+ @4 .@+@@@",
"#@$@%@&@*@=@-@N+O+;@t.o+X.>@P+Q+,@'@)@!@~@{@]@^@/@(@_@:@C+D+<@[@",
"}@|@1@2@3@4@-@N+O+;@5@W.X.Y.6@Q+7@8@9@0@a@b@c@d@e@f@g@h@i@j@k@l@",
"m@n@o@p@q@r@-@N+O+;@t.o+X.Y.s@t@u@8@v@w@x@y@z@A@B@C@D@E@(@B+F@G@",
"H@I@J@K@L@r@-@N+O+m+t.o+X.Y.x.M@N@q+O@P@Q@R@S@T@U@V@W@X@Y@Z@`@*+",
"H@ #J@.#L@r@-@+#O+m+<+o+X.Y.@#y.##$#%#&#*#=#-#-#;#-#-#>#,#'#)#!#",
"~# #{#.#]#^#/#(#_#:#t.o+X.Y.<#[#}#|###1#2#3#4#4#4#4#4#5#6#7#8#9#",
"~# #{#0#a#b#c#d#e#f#g#o+h#i#@#j#k#l#m#n#o#p#q#q#q#q#r#s#r#r#t#u#",
"v#w#x#y#z#A#B#C#D#E#F#G#H#I#J#K#L#M#N#O#P#Q#R#R#R#R#R#R#R#S#T#U#",
"~#V#W#X#Y#Z#`#-@ $.$+$@$#$$$%$&$##*$=$-$;$>$,$,$,$,$,$,$'$)$!$~$",
"{$]$^$/$($_$:$<$[$}$|$1$2$3$4$5$6$7$9.8$9$0$a$b$c$b$b$d$c$e$f$c$",
"g$h$i$j$k$l$m$n$o$p$q$r$s$t$u$v$w$x$y$z$A$B$C$D$E$F$G$H$H$H$I$I$",
"J$K$L$M$N$O$P$Q$R$S$T$U$V$W$X$Y$Z$`$ %.%+%@%#%$%%%&%*%=%=%=%=%=%",
"-%;%>%,%'%)%!%~%{%]%^%/%(%_%:%<%[%f.}%|%1%2%3%4%5%6%7%8%8%8%8%8%",
"9%0%a%b%c%d%e%f%g%h%i%j%k%l%m%n%o%p%N#q%r%s%t%u%T v%w%x%y%z%A%A%",
"B%C%D%E%F%G%H%I%J%K%L%M%N%O%P%Q%R%S%T%N#U%V%W%X%Y%Z%`% &.&+&@&@&",
"#&$&%&&&*&=&-&;&>&,&'&)&!&~&{&]&^&/&(&4 v _&:&<&[&}&|&1&v 2&3&4&",
"5&6&7&8&9&0&a&b&c&d&e&f&g&h&i&j&k&l&y$m&n&o&p&4 q&r&s&S u%t&u&v&",
"w&x&y&z&A&B&C&D&E&F&G&H&I&J&K&L&M&N&O&P&Q&R&S&T&U&V&|&W&X&Y&Z&`&",
" *.*+*@*#*$*%*&***=*-*;*>*)&,*'*)*!*~*{*]*^*/*(*q%_*:*<*[*}*|*1*",
"2*3*4*5*6*7*8*8*8*9*0*a*b*c*d*e*e*e*e*f*g*h*i*j*k*l*m*m*n*o*p*q*"};
