/* XPM */
static char * gnonograms32_xpm[] = {
"32 32 457 2",
"  	c None",
". 	c #A9B5B6",
"+ 	c #C7D5D6",
"@ 	c #A2ADB0",
"# 	c #7E8391",
"$ 	c #828498",
"% 	c #85869B",
"& 	c #8B8B9F",
"* 	c #8F92A0",
"= 	c #8E959B",
"- 	c #B5C2C4",
"; 	c #C7D5D7",
"> 	c #BFD2D4",
", 	c #E1F7F9",
"' 	c #A0ACB7",
") 	c #7B7A9C",
"! 	c #8C85B9",
"~ 	c #A9A1DB",
"{ 	c #B1A9DE",
"] 	c #B9B2E1",
"^ 	c #C1BAE5",
"/ 	c #C9C3E8",
"( 	c #CECAE9",
"_ 	c #AEACC0",
": 	c #9DA1AB",
"< 	c #BDCDD0",
"[ 	c #E2F7F9",
"} 	c #B7CED0",
"| 	c #D7F2F5",
"1 	c #D8F2F5",
"2 	c #B0C4CC",
"3 	c #747697",
"4 	c #897FC3",
"5 	c #9A8FD4",
"6 	c #A198D8",
"7 	c #D0CCEB",
"8 	c #D8D4EF",
"9 	c #E0DDF2",
"0 	c #BCBDC8",
"a 	c #A3B2B5",
"b 	c #AECACD",
"c 	c #CDEDF1",
"d 	c #CEEDF1",
"e 	c #BFDADF",
"f 	c #737B96",
"g 	c #7168AB",
"h 	c #8A7ECE",
"i 	c #9287D1",
"j 	c #E8E6F5",
"k 	c #D9D9E3",
"l 	c #93A0A2",
"m 	c #CCEBEF",
"n 	c #CFEDF1",
"o 	c #A6C5C9",
"p 	c #C4E8EC",
"q 	c #C4E8ED",
"r 	c #95AEBB",
"s 	c #5F5C95",
"t 	c #7A6DC7",
"u 	c #8275CA",
"v 	c #F0EEF9",
"w 	c #EEEDF2",
"x 	c #98ACAF",
"y 	c #C5E8ED",
"z 	c #9EC1C5",
"A 	c #BAE3E8",
"B 	c #778BA0",
"C 	c #5F57A4",
"D 	c #7264C4",
"E 	c #F8F7FC",
"F 	c #A9B1B3",
"G 	c #B7DEE4",
"H 	c #BBE3E9",
"I 	c #96BDC2",
"J 	c #B0DEE4",
"K 	c #ADDAE0",
"L 	c #5C698A",
"M 	c #5D4FAF",
"N 	c #6B5DC0",
"O 	c #CFCCEA",
"P 	c #D7D4EE",
"Q 	c #DFDDF1",
"R 	c #E7E6F4",
"S 	c #EFEEF9",
"T 	c #F7F7FC",
"U 	c #FAFBFB",
"V 	c #8DA5A8",
"W 	c #B1DEE5",
"X 	c #8DB8BE",
"Y 	c #A6D8E0",
"Z 	c #A6D9E0",
"` 	c #99C7CF",
" .	c #4C5382",
"..	c #594AB6",
"+.	c #6354BD",
"@.	c #6B5CC0",
"#.	c #9C96BA",
"$.	c #9894B1",
"%.	c #ADAAC4",
"&.	c #EFEDF8",
"*.	c #F7F6FB",
"=.	c #FEFFFF",
"-.	c #A5AFAF",
";.	c #A6D8DF",
">.	c #85B4BB",
",.	c #9CD4DC",
"'.	c #8DBDC7",
").	c #474988",
"!.	c #5342B6",
"~.	c #5B4BBA",
"{.	c #948DBB",
"].	c #777197",
"^.	c #9C95C6",
"/.	c #ADA6D6",
"(.	c #A49FC5",
"_.	c #8D89A1",
":.	c #C6C3D6",
"<.	c #FEFEFE",
"[.	c #BFC3C4",
"}.	c #95C8CF",
"|.	c #7DB0B7",
"1.	c #93CFD7",
"2.	c #80B3BF",
"3.	c #404286",
"4.	c #4B39B3",
"5.	c #6353BD",
"6.	c #9B93CA",
"7.	c #7972A2",
"8.	c #A59CD9",
"9.	c #ADA4DC",
"0.	c #B4ADE0",
"a.	c #BCB5E3",
"b.	c #C4BEE6",
"c.	c #938FA5",
"d.	c #D4D2E1",
"e.	c #FFFFFF",
"f.	c #D5D6D6",
"g.	c #81B4BC",
"h.	c #75ABB3",
"i.	c #89C9D3",
"j.	c #74A8B6",
"k.	c #3A3A85",
"l.	c #4331B0",
"m.	c #6C6693",
"n.	c #9D94D6",
"o.	c #ACA4DC",
"p.	c #B4ADDF",
"q.	c #C3BDE6",
"r.	c #CAC6E9",
"s.	c #9491A2",
"t.	c #EAE8F3",
"u.	c #EAEAEA",
"v.	c #6B8589",
"w.	c #6CA7B0",
"x.	c #7FC4CF",
"y.	c #679DAE",
"z.	c #333284",
"A.	c #3C28AD",
"B.	c #5B4ABA",
"C.	c #9D94D2",
"D.	c #736A9F",
"E.	c #9D93D6",
"F.	c #CBC8E6",
"G.	c #AFADB7",
"H.	c #F8F8F8",
"I.	c #7F888B",
"J.	c #63A2AD",
"K.	c #5B92A6",
"L.	c #2C2A83",
"M.	c #341FA9",
"N.	c #7C74A7",
"O.	c #8D83C6",
"P.	c #B4ACDF",
"Q.	c #B0AAD6",
"R.	c #7A8BA0",
"S.	c #7892A3",
"T.	c #7B91A1",
"U.	c #8D8E99",
"V.	c #C1C1C2",
"W.	c #D4D6D8",
"X.	c #426F84",
"Y.	c #252083",
"Z.	c #2C17A6",
"`.	c #8880B6",
" +	c #827AB8",
".+	c #A49BD9",
"++	c #8F91B8",
"@+	c #5E919E",
"#+	c #6CBBC7",
"$+	c #548088",
"%+	c #F1F0F5",
"&+	c #B0AFB3",
"*+	c #F7F8FC",
"=+	c #1A186A",
"-+	c #240EA3",
";+	c #9D94D3",
">+	c #71699C",
",+	c #9D93D5",
"'+	c #9F97CC",
")+	c #598A9A",
"!+	c #63B6C3",
"~+	c #548B94",
"{+	c #EFEEF3",
"]+	c #F4F4F4",
"^+	c #B7B6BD",
"/+	c #F7F6FC",
"(+	c #191372",
"_+	c #6F6798",
":+	c #6D7A9B",
"<+	c #59B1BF",
"[+	c #4E8590",
"}+	c #EFEEF4",
"|+	c #97A3A5",
"1+	c #CED1DA",
"2+	c #181372",
"3+	c #706897",
"4+	c #9C92D5",
"5+	c #597D95",
"6+	c #4FACBA",
"7+	c #598892",
"8+	c #ACB8BE",
"9+	c #5098A4",
"0+	c #7F9AA3",
"a+	c #171370",
"b+	c #7A73A0",
"c+	c #958CCC",
"d+	c #597C97",
"e+	c #45A7B6",
"f+	c #536A71",
"g+	c #48919E",
"h+	c #6D959F",
"i+	c #F4F3F8",
"j+	c #A79FD8",
"k+	c #716B97",
"l+	c #A39AD8",
"m+	c #5C7997",
"n+	c #3E9EB1",
"o+	c #3A8E9F",
"p+	c #3E8290",
"q+	c #3E9FB2",
"r+	c #648F9B",
"s+	c #91A6AC",
"t+	c #161270",
"u+	c #79739A",
"v+	c #A097D4",
"w+	c #617496",
"x+	c #3993AC",
"y+	c #56737D",
"z+	c #40869A",
"A+	c #16126F",
"B+	c #ABA3D6",
"C+	c #78729C",
"D+	c #8D8ABA",
"E+	c #337693",
"F+	c #3487A7",
"G+	c #3587A7",
"H+	c #33809E",
"I+	c #385D6E",
"J+	c #15116E",
"K+	c #8680A5",
"L+	c #A299CF",
"M+	c #4F6989",
"N+	c #307BA1",
"O+	c #2F779B",
"P+	c #307AA0",
"Q+	c #15106D",
"R+	c #7C769A",
"S+	c #8A8AB5",
"T+	c #29648B",
"U+	c #2B6F9C",
"V+	c #2B709C",
"W+	c #150F6D",
"X+	c #A9A3C8",
"Y+	c #8A85AA",
"Z+	c #586788",
"`+	c #276395",
" @	c #276497",
".@	c #140E6C",
"+@	c #4B39B2",
"@@	c #392D82",
"#@	c #3A2D81",
"$@	c #413485",
"%@	c #4B408C",
"&@	c #6F679C",
"*@	c #6F6999",
"=@	c #766F9C",
"-@	c #8F88B5",
";@	c #A9A4C5",
">@	c #938EB1",
",@	c #3F5578",
"'@	c #225891",
")@	c #130D6A",
"!@	c #33278A",
"~@	c #2A1C75",
"{@	c #3C2AA4",
"]@	c #3E2D97",
"^@	c #3C2F83",
"/@	c #3F357C",
"(@	c #332C5A",
"_@	c #7569BE",
":@	c #7F73BD",
"<@	c #585086",
"[@	c #7D71C1",
"}@	c #8B80CE",
"|@	c #9388D1",
"1@	c #887FBA",
"2@	c #787398",
"3@	c #BBB4DE",
"4@	c #B1ADC9",
"5@	c #8B879F",
"6@	c #44506B",
"7@	c #1C4A89",
"8@	c #1D4C8C",
"9@	c #120C6A",
"0@	c #2D1D88",
"a@	c #1D1564",
"b@	c #3622A7",
"c@	c #34268C",
"d@	c #483A95",
"e@	c #7163C2",
"f@	c #796CC5",
"g@	c #7B6FC0",
"h@	c #303056",
"i@	c #7B6EC6",
"j@	c #8477CB",
"k@	c #66649D",
"l@	c #314172",
"m@	c #314274",
"n@	c #6F6F8F",
"o@	c #B5B3C4",
"p@	c #787988",
"q@	c #3F4B65",
"r@	c #183974",
"s@	c #194086",
"t@	c #120A69",
"u@	c #251580",
"v@	c #221087",
"w@	c #2F1BA7",
"x@	c #3723AB",
"y@	c #35287E",
"z@	c #4A447B",
"A@	c #7466C4",
"B@	c #7C6FC8",
"C@	c #8277CA",
"D@	c #41457C",
"E@	c #1B3169",
"F@	c #404A79",
"G@	c #515781",
"H@	c #343A59",
"I@	c #C6C0E5",
"J@	c #807E94",
"K@	c #9A96B2",
"L@	c #9895A9",
"M@	c #B2B1BB",
"N@	c #ACACB2",
"O@	c #5A6279",
"P@	c #384A75",
"Q@	c #1E3672",
"R@	c #110967",
"S@	c #230E9F",
"T@	c #190A6E",
"U@	c #1E0A91",
"V@	c #2812A4",
"W@	c #2F1AA7",
"X@	c #372A80",
"Y@	c #665BA7",
"Z@	c #5B50A1",
"`@	c #7B6EC8",
" #	c #524F8E",
".#	c #10256B",
"+#	c #7673A3",
"@#	c #B0A8DE",
"##	c #B8B1E1",
"$#	c #BDB6E1",
"%#	c #C5BFE3",
"&#	c #838199",
"*#	c #3B3D58",
"=#	c #B7B1D5",
"-#	c #9493A5",
";#	c #525360",
">#	c #F6F5FB",
",#	c #717688",
"'#	c #797F99",
")#	c #BBBCC6",
"!#	c #0D0652",
"~#	c #10055B",
"{#	c #19029C",
"]#	c #2009A1",
"^#	c #2712A4",
"/#	c #2B216D",
"(#	c #6F62BF",
"_#	c #493F83",
":#	c #6C5EC1",
"<#	c #232966",
"[#	c #2B316A",
"}#	c #A8A0DB",
"|#	c #ADA8C9",
"1#	c #948FB4",
"2#	c #BFB9E4",
"3#	c #8F8DA2",
"4#	c #E6E4F3",
"5#	c #D3D1DC",
"6#	c #F0EFF5",
"7#	c #9C9DA4",
"8#	c #696B80",
"9#	c #CDCDD4",
"0#	c #040B4B",
"a#	c #0C0561",
"b#	c #19029E",
"c#	c #3521A5",
"d#	c #11115A",
"e#	c #221F64",
"f#	c #493E91",
"g#	c #473E8A",
"h#	c #28255E",
"i#	c #6C5DC1",
"j#	c #4C4588",
"k#	c #06106B",
"l#	c #1E2361",
"m#	c #C0B9E4",
"n#	c #7C7797",
"o#	c #B7B0E1",
"p#	c #807E91",
"q#	c #E6E4F4",
"r#	c #EEECF8",
"s#	c #F4F3F9",
"t#	c #A6A5AC",
"u#	c #ECEAF7",
"v#	c #F2F1F9",
"w#	c #01035B",
"x#	c #020461",
"y#	c #0D0167",
"z#	c #1F099C",
"A#	c #26158D",
"B#	c #0D0A5D",
"C#	c #01046B",
"D#	c #01056B",
"E#	c #010563",
"F#	c #010565",
"G#	c #090B61",
"H#	c #483D93",
"I#	c #5A50A1",
"J#	c #0F1060",
"K#	c #020666",
"L#	c #474577",
"M#	c #ACA4D9",
"N#	c #ADA6D4",
"O#	c #575473",
"P#	c #A59ED2",
"Q#	c #918DB4",
"R#	c #27285E",
"S#	c #70708E",
"T#	c #9190A3",
"U#	c #4F5071",
"V#	c #797990",
"W#	c #DEDDE9",
"X#	c #73738A",
". + + + + + + + + + + + + + + + + @ # $ % & * = - ; ; ; ; ; ; ; ",
"> , , , , , , , , , , , , , , ' ) ! ~ { ] ^ / ( _ : < [ [ [ [ [ ",
"} | | | | | | | | | | 1 1 2 3 4 5 6 ~ { ] ^ / 7 8 9 0 a 1 1 1 1 ",
"b c c c c c d d d d d e f g h i 5 6 ~ { ] ^ / 7 8 9 j k l m n n ",
"o p p p p p p p p q r s t u h i 5 6 ~ { ] ^ / 7 8 9 j v w x y y ",
"z A A A A A A A A B C D t u h i 5 6 ~ { ] ^ / 7 8 9 j v E F G H ",
"I J J J J J J K L M N D t u h i 5 6 ~ { ] ^ / O P Q R S T U V W ",
"X Y Z Z Z Z `  ...+.@.D t u h i 5 6 ~ { ] #.$.%.8 9 j &.*.=.-.;.",
">.,.,.,.,.'.).!.~.+.@.D t u h i 5 6 ~ {.].^./.(._.:.j v E <.[.}.",
"|.1.1.1.2.3.4.!.~.5.@.D t u h i 5 6 6.7.8.9.0.a.b.c.d.v E e.f.g.",
"h.i.i.j.k.l.4.!.~.5.@.D t u h i 5 6 m.n.8.o.p.a.q.r.s.t.E e.u.v.",
"w.x.y.z.A.l.4.!.B.5.@.D t u h i 5 C.D.E.8.o.p.a.q.r.F.G.E e.H.I.",
"J.K.L.M.A.l.4.!.B.5.@.D t u h i 5 N.O.E.8.o.P.Q.R.S.T.U.E e.V.W.",
"X.Y.Z.M.A.l.4.!.B.5.@.D t u h i 5 `. +E..+o.++@+#+#+#+$+%+e.&+*+",
"=+-+Z.M.A.l.4.!.B.5.@.D t u h i 5 ;+>+,+.+'+)+!+!+!+!+~+{+]+^+/+",
"(+-+Z.M.A.l.4.!.B.5.@.D t u h i 5 6 _+,+.+:+<+<+<+<+<+[+}+|+1+/+",
"2+-+Z.M.A.l.4.!.B.5.@.D t u h i 5 6 3+4+.+5+6+6+6+6+6+7+8+9+0+*.",
"a+-+Z.M.A.l.4.!.B.5.@.D t u h i 5 6 b+c+.+d+e+e+e+e+e+f+g+e+h+i+",
"a+-+Z.M.A.l.4.!.B.5.@.D t u h i 5 6 j+k+l+m+n+n+n+n+o+p+q+q+r+s+",
"t+-+Z.M.A.l.4.!.B.5.@.D t u h i 5 6 ~ u+v+w+x+x+x+x+x+x+x+x+y+z+",
"A+-+Z.M.A.l.4.!.B.5.@.D t u h i 5 6 ~ B+C+D+E+F+G+G+G+G+G+H+I+G+",
"J+-+Z.M.A.l.4.!.B.5.@.D t u h i 5 6 ~ { K+L+M+N+N+N+N+N+N+O+P+N+",
"Q+-+Z.M.A.l.4.!.B.5.@.D t u h i 5 6 ~ { ] R+S+T+U+U+U+U+U+V+V+V+",
"W+-+Z.M.A.l.4.!.B.5.@.D t u h i 5 6 ~ { ] X+Y+Z+`+ @ @ @ @ @ @ @",
".@-+Z.M.A.l.+@@@#@$@%@D t u h i &@*@=@-@] ^ ;@>@,@'@'@'@'@'@'@'@",
")@-+Z.M.A.!@~@{@]@^@/@(@_@u :@<@[@}@|@1@2@3@/ 4@5@6@7@8@8@8@8@8@",
"9@-+Z.M.0@a@b@c@d@5.@.e@f@g@h@i@j@}@k@l@m@n@/ 7 8 o@p@q@r@s@s@s@",
"t@-+Z.u@v@w@x@y@B.5.@.D t z@A@B@C@D@E@F@G@H@I@( J@K@L@M@N@O@P@Q@",
"R@S@T@U@V@W@x@X@B.5.@.D Y@Z@A@`@ #.#+#@###$#%#&#*#=#-#;#>#,#'#)#",
"!#~#{#]#^#W@x@/#B.5.@.(#_#:#A@i@<#[#}#@###^ |#1#2#3#4#5#6#7#8#9#",
"0#a#b#]#^#W@c#d#e#f#g#h#+.i#A@j#k#l#}#@###m#n#o#2#p#q#r#s#t#u#v#",
"w#x#y#z#^#A#B#C#D#E#F#G#H#i#I#J#D#K#L#M#N#O#P#o#Q#R#S#T#U#V#W#X#"};
